<svg xmlns="http://www.w3.org/2000/svg" width="500" height="500" xmlns:v="https://vecta.io/nano"><path fill="#a5acaf" d="M424.999 142.172c-53.851-34.012-177.202-60.027-269.21-81.428L50 174.512l90.806-1.941c-45.215 73.087-36.001 244.951 78.337 267.798-5.887-11.289-16.107-32.029-2.858-57.705l61.894-118.661h12.557c17.005 0 22.602 6.396 15.06 15.413 45.328-.578 73.162-17.726 85.652-36.05-9.508-17.406-39.756-37.898-52.02-46.204h63.422c18.186 0 22.288 7.624 18.005 15.924 29.681-5.838 44.854-45.202 4.143-70.914"/><path fill="#fffffe" d="M417.755 145.641c-73.348-41.161-254.966-68.596-254.966-68.596l-77.8 83.38h80.663c-59.557 78.734-46.36 237.668 41.222 270.709-6.212-14.778-9.359-31.931 1.837-53.756l61.554-121.216h23.51c19.512 0 25.749 8.254 23.103 14.624 16.045 0 45.38-1.574 66.667-27.42-17.732-24.787-76.366-53.689-76.366-53.689h100.588c14.781 0 22.169 5.26 20.126 14.169 25.698-12.554 19.017-41.847-10.138-58.205"/><path fill="#000" d="M298.702 192.381s64.83 31.735 77.434 50.984c-6.64 8.837-16.793 15.026-30.387 18.134 8.688-6.674 10.334-13.091 4.994-13.091h-19.218c-3.281 3.231-5.03 9.069-.629 14.954-7.429-1.626-14.585-7.743-15.137-14.954h-40.69l25.486-50.524-1.852-5.503zm116.004-41.212c28.386 15.584 26.513 37.052 18.119 44.139.15-7.665-7.378-13.369-20.957-13.369H279.241l14.255 7.64-91.91 183.473c-7.563 15.506-9.637 32.917-3.121 47.422-16.886-10.711-30.145-27.946-39.478-48.955l-7.579-.516 80.514-118.202a50.16 50.16 0 0 1-.454-2.292l-81.288 95.877c-4.163-15.465-6.562-32.133-7.078-49.229l-9.209-2.307 99.861-78.837.779-2.498-90.554 54.989c1.367-15.166 4.22-30.326 8.621-44.96l-9.369-5.306 106.578-35.539 1.445-2.163-89.46 18.289c4.829-10.768 10.592-21.055 17.355-30.579l-8.286-7.82h106.986l.887-1.765-159.289-12.187 45.292-48.785-7.084-9.018s195.367 28.643 257.05 62.5z"/><path fill="#fffffe" d="M421.717 163.403l1.703 7.536c-11.608 2.183-32.147 3.923-37.951 4.393l-.877 1.75h30.573c12.129 0 17.237 5.755 18.315 9.064 1.589-4.527.124-16.668-11.763-22.743zm-33.999-14.897c6.779 2.261 22.035 10.778 27.813 17.442h-10.963c-4.323-7.113-16.85-17.442-16.85-17.442z"/><path fill="#a71930" d="M158.404 242.694l65.155-35.596 1.099-2.653-62.704 22.542a200.25 200.25 0 0 0-3.55 15.708zm29.134-70.599a146.34 146.34 0 0 0-8.022 12.27l63.731-11.392 1.692-2.183-57.401 1.306zm40.432 117.262l-1.238-2.292-52.907 79.818c2.776 5.26 5.845 10.179 9.183 14.696l44.962-92.222zm-70.67 25.329l58.814-65.643-.098-2.808-60.62 51.557a208.93 208.93 0 0 0 1.904 16.895zm183.145-75.147l-46.174-6.896-4.685 9.075h49.77l1.089-2.178zm31.894-82.6l-211.402-29.268 12.934-14.014c71.207 11.01 156.369 28.416 199.608 41.016l-1.14 2.266z"/></svg>