<svg xmlns="http://www.w3.org/2000/svg" width="500" height="500" fill="none" xmlns:v="https://vecta.io/nano"><g fill="#fff"><path d="M440.351 142.221l-.072.08-.24.288.304-.376.008.008z"/><path d="M449.28 111.54c.008-.848-.12-1.704-.416-2.528-8.768-24.528-32.56-21.456-46.777-19.616-3.36.432-8.272 1.064-10.312.784-4.696-5.232-9.784-10.008-15.168-14.24.224-2.192-.552-4.456-2.272-6.048a7.23 7.23 0 0 0-5.624-1.888c-.952.064-3.736.136-6.384.136-.536-1.2-1.344-2.232-2.4-3.008-2.24-1.696-4.84-1.936-6.6-1.968-.824-1.24-2.032-2.256-3.512-2.848-12.985-5.232-26.993-7.856-41.617-7.784-18.848.096-39.016 4.672-59.953 13.592-10.824-1.6-19.984-4.392-28.84-7.12-11.512-3.536-22.384-6.88-35.137-7-10.208-.096-20.584 1.944-31.712 6.24a7.56 7.56 0 0 0-4.088 3.784c-2.408-.512-4.448-.992-5.24-1.224 0 0 .016 0 .024.008-1.976-.664-4.16-.456-5.984.632-1.248.744-2.208 1.84-2.816 3.112-1.048.136-1.968.392-2.8.84-1.696.912-2.96 2.416-3.56 4.24-.032.088-.056.176-.08.264-.144.496-.232 1.032-.264 1.544 0 .048 0 .096-.008.152v.056-.056c-3.208.76-5.689 2.208-7.689 3.552l-1.424-.376c-.328-.08-.624-.136-.872-.184l-.256-.048-1.632-.32-.96-.144-.264-.04-1.6-.208-1.072-.096-.24-.016c-.488-.04-1.024-.088-1.608-.112-.424-.024-.832-.032-1.2-.04h-.16c-.464-.016-1.024-.024-1.616-.024-.52 0-1 .016-1.416.032l-1.624.08-1.456.112c-.528.048-1.08.104-1.632.176l-1.488.2-1.632.272-1.496.288-1.664.376-1.504.376c-.592.16-1.128.328-1.648.48-.016 0-.224.072-.224.072l-1.312.416c-.536.184-1.048.376-1.504.544l-.152.056-.272.104c-.368.136-.784.288-1.224.472-.52.208-1.008.432-1.432.624l-.24.112-.328.144a24.01 24.01 0 0 0-1.12.512c-.512.248-.992.504-1.416.728l-.312.168-.344.184c-.296.152-.64.328-1.016.544l-.52.304c-.168-.008-.336-.056-.512-.056a7.26 7.26 0 0 0-3.696 1.016 44.63 44.63 0 0 0-2.648 1.704l-.92.64a56.88 56.88 0 0 0-1.824 1.384c-.12.096-.264.232-.392.336-.816.304-1.616.632-2.408 1.032l-.824.432c-.112.064-.208.112-.328.184l-.52.304c-.016.008-.136.08-.152.088l-.032.024c-.032.016-.2.12-.232.136a20.23 20.23 0 0 0-.56.36c-.048.032-.104.072-.104.072-.08.056-.2.128-.328.216l-.576.4-.344.248c-.208.152-.36.272-.496.376a13.02 13.02 0 0 0-.44.344l-.512.416-.384.32a12.43 12.43 0 0 0-.424.376l-.448.408-.464.44c-.104.104-.24.232-.392.376l-.416.424c-.072.072-.4.416-.4.416-.024.024-.424.464-.424.464.008-.008-.376.424-.376.424-.136.152-.264.304-.408.472l-.36.432c-.024.032-.304.376-.304.376l-.472.608c-.096.128-.224.296-.328.448l-.376.512-.328.472-.36.536-.328.504c.008-.016-.328.528-.328.528-.016.024-.288.472-.288.472-.136.224-.248.424-.352.616a11.03 11.03 0 0 0-.272.488l-.32.608-.24.472c-.12.232-.216.448-.312.648l-.232.504-.288.656c-.032.08-.2.472-.2.472-.112.272-.2.504-.28.712.008-.016-.176.472-.176.472l-.272.76-.16.464c-.096.28-.176.552-.248.784-.048.152-.088.288-.128.44a23.09 23.09 0 0 0-.224.832l-.112.424c-.08.32-.144.616-.2.88a8.55 8.55 0 0 0-.08.392c-.072.36-.128.688-.176.96-.016.104-.04.208-.056.336l-.152 1.112s-.016.088-.024.208c-.216 1.84-.264 3.688-.152 5.504 0 .08.016.24.024.32.016.312.056.704.096 1.088 0 .056.032.264.04.32v.024c.04.304.08.664.144 1.048.024.136.04.264.056.352l.192 1.056.08.376.24 1.032c.04.16.072.288.104.376l.288 1.024.12.392.336 1 .176.48.368.944.176.408.432.976a13.63 13.63 0 0 0 .224.464c.144.296.296.6.464.912a18.71 18.71 0 0 0 .24.44l.52.912.336.56.496.784.36.536.56.8.392.528.592.768.424.528.632.752.456.52a42.5 42.5 0 0 0 .672.728 18.16 18.16 0 0 0 .504.528c.24.248.48.48.696.696.016.016.536.512.536.512l.768.704a154.89 154.89 0 0 1 .56.496c.28.248.56.48.8.68a92.56 92.56 0 0 1 .576.481l.856.672.624.472c.304.232.6.44.88.64l.656.464.944.64.152.096.52.344.904.56.28.168.512.312 1.032.6c.032.016.2.112.2.112.16.096.352.2.56.32l.912.488.2.104.224.12.512.272 1.176.584c.04.024.24.12.24.12.152.08.328.16.52.256l1.288.6c.08.032.256.12.256.12.056.032.144.064.216.096-.112 7-1.928 10.288-4.664 15.184-2.392 4.288-5.376 9.616-7.536 18.248a7.22 7.22 0 0 0 .84 5.52c1.008 1.656 2.64 2.832 4.528 3.28.248.056.368.12.408.136 1.528 1.712.408 11.208-.2 16.312-1.368 11.553-3.04 25.761 4.352 35.817l.568 6.72-.144.296c0 .008-.088.184-.088.184-.176.352-.32.664-.456.96l-.08.176-.432.976c.016-.04-.096.224-.096.224l-.376.896c-.008.024-.072.192-.08.216l-.024.056-.344.904c0 .016-.064.168-.064.184l-.016.048c-.128.376-.232.656-.312.928-.008.032-.064.192-.072.224l-.016.048c-.088.28-.184.592-.272.92l-.08.296c-.096.36-.16.64-.224.904-.032.136-.056.248-.072.328-.08.384-.128.664-.176.936 0 .048-.04.248-.048.304v.032a23 23 0 0 0-.128.912c-.016.152-.032.296-.032.376l-.064.936c0 .064-.008.288-.008.352v.032c0 .232-.016.552 0 .912a5.91 5.91 0 0 0 .016.376v.032l.064.952c.016.152.032.296.048.384.032.272.072.584.136.944l.072.384c.056.28.112.576.192.912.056.224.096.352.12.44l.248.856c.072.224.12.352.152.44l.32.856c.08.2.152.352.2.456l.368.8.208.408a23 23 0 0 0 .44.816c.088.152.168.272.216.352s.072.112.072.112c.112.184.256.424.432.68l.264.384.088.128c.12.176.264.384.448.632l.296.384c.064.08.136.176.136.176l.448.56c.112.136.232.272.32.368a6.54 6.54 0 0 1 .16.184l.448.512c.136.152.272.288.384.408.072.08.168.176.168.176l.432.448a7.64 7.64 0 0 0 .464.448l.16.16c.12.12.264.264.432.416l.544.496.208.184.368.336.624.528.12.096.456.384.712.568.136.112.128.104.264.208 1.192.896.168.128c.08.056.176.12.256.184 3.136 19.201 9.064 34.041 17.648 44.113a7.24 7.24 0 0 0 5.512 2.544 7.18 7.18 0 0 0 2.016-.288c3.008-.88 5.704-1.352 8.008-1.424 3.392-.104 5.672.64 6.769 2.216 1.2 1.712 1.128 4.392.608 5.672-1.129 2.816-.392 6.032 1.856 8.064 24.408 22.121 38.592 25.361 47.976 27.505 7.176 1.64 9.88 2.256 15.032 11.032 5.328 9.76 8.665 18.376 11.609 25.976 7.432 19.192 13.304 34.353 42.872 37.057 5.416.496 11.56.6 18.776.32.984-.016 2.104-.088 3.208-.184.928-.08 1.792-.208 2.536-.32.137-.016.352-.04.609-.08a39.75 39.75 0 0 0 5.456-1.304c.352-.072.68-.152.976-.24.056-.016.112-.024.16-.04.008 0 .016 0 .032-.008a10.72 10.72 0 0 0 1.68-.624 16.59 16.59 0 0 0 .848-.424l.264-.128c-.152.08-.256.12-.408.192.728-.312 1.456-.64 2.144-.992-.184.096-.376.176-.568.256a8.54 8.54 0 0 0 .816-.4c1.92-.984 3.768-2.136 5.488-3.456l.432-.336c1.576-1.24 3.088-2.664 4.48-4.192l.68-.76a55.92 55.92 0 0 0 1.096-1.32c.272-.344.512-.672.728-.96l.112-.152a42.59 42.59 0 0 0 1.264-1.808c.416-.624.744-1.137 1.048-1.633l.68-1.168c.304-.536.624-1.12.936-1.728l.128-.24a12.8 12.8 0 0 0 .384-.752c.44-.896.872-1.832 1.272-2.776l.24-.584.088-.224a88.4 88.4 0 0 0 .928-2.392c0-.016.056-.168.056-.168l.264-.744.56-1.672a6.85 6.85 0 0 0 .848-1.672l.816-2.392c3.112-9.344 3.992-15.248 4.36-20.496 9.328-4.712 17.176-15.76 25.408-27.368 6.104-8.617 13.705-19.345 18.777-21.161.24-.08.464-.176.696-.288 3.848-1.848 8.672-2.88 13.776-3.984 4.728-1.016 10.088-2.176 15.456-4.152a9.42 9.42 0 0 1-.808.248c1.112-.272 2.128-.696 3.08-1.2.048.016.096.048.152.072a7.59 7.59 0 0 0 1.016.344c.048.016.104.016.16.032.288.064.584.12.888.144.112.016.224.016.336.024.136 0 .264.024.4.024.08 0 .152-.024.224-.024a6.93 6.93 0 0 0 .896-.088c.136-.024.28-.032.416-.064a6.75 6.75 0 0 0 1.104-.336c.048-.016.096-.024.144-.048.376-.16.744-.344 1.096-.568.032-.024.064-.048.104-.072.008 0 .024-.008.032-.016-.008 0-.024.008-.032.016l.072-.048c4.696-3.04 7.312-7.112 8.832-10.856.48-.24.944-.512 1.36-.848.536-.376 1.064-.792 1.584-1.288.056-.056.2-.192.368-.368.624-.664 1.16-1.36 1.616-2.104.064-.104.184-.32.248-.424 0 0-.024.048-.056.104.216-.376.408-.752.592-1.128a7.68 7.68 0 0 0 2.84-2.488 70.99 70.99 0 0 0 2.28-3.584l.2-.2c2.297-2.28 6.561-6.528 7.777-14.68l.152-1.072a84.05 84.05 0 0 0 .304-2.768c1.576-4.072 3.384-7.369 5.144-10.553 1.968-3.568 3.824-6.936 5.176-10.992.216-.656.392-1.224.552-1.8.032-.12.064-.24.08-.32.16-.592.28-1.088.384-1.56l.096-.472c.128-.608.208-1.056.28-1.488.04-.232.064-.44.096-.616.088-.576.144-1.016.184-1.448l.064-.664c.056-.624.08-1.064.104-1.472.016-.296.024-.6.032-.872.016-.472.024-.928.024-1.36l-.008-.96c-.008-.464-.032-.92-.056-1.376a37.62 37.62 0 0 0-.064-1.032l-.12-1.384-.12-1.088-.192-1.44c-.048-.36-.104-.744-.176-1.16-.08-.512-.176-1.016-.264-1.496l-.232-1.208-.344-1.576-.04-.2-.24-1.048c-.136-.576-.28-1.128-.424-1.664 0-.016-.088-.328-.088-.328l-.264-.992-.472-1.664-.144-.496-.288-.984-.12-.368a7.24 7.24 0 0 0 2.472-5.328c.608-36.217-2.784-59.945-11.176-76.513l.744-.304.32-.136.344-.136c.248-.096.528-.208.832-.336.864-.368 1.64-.744 2.392-1.096.04-.024.128-.056.208-.096a10.99 10.99 0 0 0 .664-.312 48.76 48.76 0 0 0 2.432-1.288l.088-.048.528-.28c.96-.544 1.8-1.08 2.424-1.48-.064.04-.024.016-.024.016.104-.064.28-.168.472-.296.728-.48 1.512-1.032 2.344-1.664-.032.024.104-.064.264-.192.76-.584 1.504-1.2 2.28-1.888l-.192.168c.096-.08.224-.184.376-.32.696-.624 1.416-1.336 2.104-2.072-.072.08-.12.128-.192.2.08-.072.176-.184.256-.264a31.33 31.33 0 0 0 1.888-2.249c.04-.048.08-.088.112-.136 3.208-4.208 5.048-8.968 5.496-14.152.56-.808 1.072-1.624 1.52-2.456.032-.064.064-.12.096-.184 2.472-4.656 3.056-9.504 1.768-13.824l-.056.024zM275.862 446.465s-.048.008-.072.016c.104-.032.216-.056.312-.088l-.24.072zm111.881-111.226c-.128 0-.248-.016-.368-.024.192.008.392 0 .584 0-.072 0-.144.024-.216.024zm51.041-210.291c.32 12.472-9.64 21.625-29.881 27.457 9.729 13.536 15.521 35.376 14.769 80.361l-5.496-2.064c15.216 39.912.752 39.64-6.521 63.177 0 .024 0 .048-.008.072-.488 3.288-1.552 5.192-2.728 6.544-1.808 3.792-3.72 7.104-5.712 9.992-.976 1.416-.472-5.808-1.48-4.584-.952 1.16-.232 8.44-4.16 10.648-1.168 1.192-.184-5.744-1.392-4.752-.952.784-.232 10.984-8.44 16.2 3.464-7.056 1.976-7.544.688-6.824-1.192.664-4.288 6.592-8.416 7.592-10.624 3.92-21.304 4.296-29.856 8.4-15.377 5.496-31.609 46.705-48.737 50.249-.288 7.2-.592 12.976-5.016 25.592-.152.144-.312.28-.464.424-5.336 18.145-16.144 27.401-32.449 27.761-55.312 2.12-44.6-19.297-66.68-59.697-14.625-24.953-21.609-1.488-64.449-40.329 2.784-6.912 0-23.12-24.129-16.112-8.184-9.608-13.68-24.136-16.48-43.585-15.168-10.16-14.808-16.448-8.472-28.208l-1.416-10.816c-13.872-15.632 6.792-52.353-9.688-56.225 4.784-19.112 13.648-19.336 12.28-40.08-44.377-16.913-24.872-51.681-9.16-54.153 1.128-.616 2.392-1.192 3.8-1.736 13.88-10.48 31.16-11.328 42.12-7.136 3.625-2.36 6.233-4.968 11.537-4.824 1.128-.664 5.704-.08 6.8-.696 1.28-.72-5.696-5.16-4.456-5.816 1.152-.616 13.984 2.464 15.096 1.896.944-.48-9.208-6-9.208-6 0 .176 18.256 4.312 19.96 3.568 1.712-.752-7.392-5.608-5.76-6.24 39.44-15.216 57.073 4.008 95.057 8.72l.368-.728c40.881-17.552 72.697-15.56 96.522-5.96 1.656.664-7.001.944-3.392 2.904 1.888 1.824 9.96-.472 11.856.984 1.064.552-2.44 3.504-.336 4.024 1.352.76 14.24.344 14.168.272-.528 1.216-7.64 3.048-6.288 3.984 1.392.96 6.472.456 7.776 1.456 6.536 4.992 12.064 10.392 16.624 15.616 8.84 5.928 44.393-13.144 54.521 15.192h-.024c2.64 4.136.448 9.12-3.24 13.488l-.008-.008z"/><path d="M447.48 125.436l.096-.176c-.016.04-.04.072-.056.104-.016.024-.016.048-.032.072h-.008zm-17.217 145.123l-.064.184.056-.184h.008zM127.731 71.444c0-.088 0-.176.016-.264l-.024.248-.008.168c0-.048.016-.096.016-.152z"/><path d="M447.473 125.453l-.056.096-.112.208.176-.304h-.008zM281.645 444.072s-.08.032-.112.056c-.08.04-.152.088-.224.128l.344-.184h-.008z"/></g><path d="M368.464 105.524c-4.104-7.944-10.032-11.032-17.776-9.264 0-25.752-62.489-28.768-77.249-18.64 11.568 3.048 23.248 4.112 35.049 3.184-12.385 8.48-30.305 11.792-45.281 6.184-8.424 12.992 4.016 29.472 27.144 15.176 5.288-1.656 34.153-13.12 53.657 12.296-41.633-10.648-53.865 24.921-67.457 11.744-3.632-5.08 1.656-24.464-27.68 5.497 4.2-25.753 2.424-40.073-1.296-52.793l.248-.488c-22.193-6.904-43.825-10.264-64.889-10.072l10.128 9.264c-9.472.856-16.536 1.648-26.464 1.928-2.792.136-10.265-.24-11.609 0-1.656.288 3.56 2.328 1.952 2.664-1.328.28-12.44-2.808-18.184-.856 6.024 1.28 9.736 2.84 8.816 3.096-5.584 1.536-8.128 2.88-12.8 5.448l2.048 12.712c-13.744-8.032-33.032-12.128-57.857-12.28.04-.032.08-.056.112-.08-1.4.544-2.672 1.12-3.8 1.744-20.968 29.936-1.12 37.328 11.992 42.377-10.312-10.537-10.536-21.305 2.68-27.553 11.705-3.168 21.577 2.04 29.624 15.624-22.752 19.769-22.84 44.825-19.496 85.434l-18.209 34.584-.016-.016 1.416 10.816c.784 5.336 4.32 7.168 10.616 5.496-2.712 5.744-.936 13.728 0 18.337 1.44-3.288 3.616-7.097 8.552-9.873 1.88 23.089 8.296 45.377 25.152 42.113 2.992 3.792 7.448 8.496 12.656 13.344 1.528 1.424 4.184 11.968 5.816 13.4 1.512 1.32 2-6.472 3.576-5.176 1.752 1.44 2.808 14.257 4.6 15.625.256.504 2.016-11.201 5.968-7.545 17.217 12.113 33.537 18.121 31.241-.264-93.137-39.28-69.345-128.657-69.345-128.657l-8.76 8.472c-1.48-14.336-1.888-27.265-1.36-38.681.112-2.44 4.04-9.184 4.24-11.488 2.808-5.56 4.352-10.528-4.944-1.856-.304-9.912 9.448-14.024 10.224-17.04.52-2.024-4.6-1.552-3.992-3.392 10.504-5.904 7.872-7.632 8.952-9.92 1.112-2.352-3.664-2.056-2.368-3.96 4.976-7.305 11.264-11.257 18.496-11.553-8.096 11.753-17.512 34.833-14.256 56.065 32.256-7.912 11.992-38.816 36.593-55.073 11.456-5.728 18.296-6.96 42.192 5.248-6.696 1.048-17.272 2.592-17.224 10.617 4.352 11.04 31.136-3.04 39.208 27.104-8.76-4.728-12.536-6.104-19.088-2.52 16.168 5.344 26.129 10.152 18.92 28.352-7.216-13.736-13.704-16.272-21.432-10.752-1.096-4-2.688-6.896-4.576-9.144-1.088 15.376-10.224 20.92-25.024 10.88 1.304 2.424 3.36 5.08 6.128 8.136-5.064-1.744-8.48-3.944-10.248-6.608-1.72 3.152-.256 6.312 4.376 9.504-7.952 14.817 3.72 15.849 11.96 10.008 10.304-13.048 16.832-16.824 23.528-15.872-7.728 17.249-29.36 32.361-16.656 35.105-7.432 8.688-7.496 12.512-.2 11.456-4.616 7.2-4.952 11.896.2 10.52-4.464 26.44 1.144 34.865 10.304 40.865-7.896 11.672-4.48 27.328 6.4 45.888v.04c.112-.552.248-1.088.392-1.6-1.24-23.32.448-24.664 5.944-38.688 4.024 2.36 5.944 12.232 11.208 14.248 2.096-7.232 4.153-11.72 6.169-13.448l6.168 5.496 5.048-2.136 3.48 1.568 3.36-2.24 5.944 2.016 5.72-4.256c1.48-.952 2.712 3.232 3.704 12.552l7.512-9.648c3.504 5.984 4.44 19.968 2.808 41.944 7.68-9.584 12.8-18.744 14.472-27.92 2.44-8.384.608-15.784-5.496-22.2l11.784 6.336v-.096c6.633 1.648 11.337-.584 12.881-7.064 18.968 27.248-11.041 58.872-18.081 79.313l3.984 7.088c19.665-20.528 30.897-36.753 33.681-48.657l7.088 7.008c2.712-3.36 4.552-9.12 5.496-17.28 32.808 13.584 35.865-20.864 55.737-22.688l6.296 10.192c-.032.064-.064.128-.096.2 1.176-1.344 2.24-3.256 2.728-6.544 0-.024 0-.048.008-.072l-2.408-8.912c5.032-24.121 4.688-41.977-1.032-53.577 10.456-22.232 9.544-47.985-2.752-77.273-23.768-6.2-32.353-19.248-25.752-39.153 12.36 13.392 53.576 3.776 59.064 9.96 3.688-4.352 5.88-9.344 3.24-13.472-17.76 2.128-27.04-17.344-73.561-5.928h.032zM94.189 258.446c.648-11.84-.56-29.696 3.064-35.176 8.76 14.312 9.592 20.296-3.064 35.176zm120.345-125.273c14.72-13.457 21.361-29.945 19.92-49.457 6.241 7.576 7.385 19.6 3.433 36.056-4.465 43.617 7.896 17.513 11.68 25.409 2.008 3.312-.176 11.568-3.088 21.64l-13.049-5.152c-1.968-11.2-8.264-20.704-18.888-28.504l-.008.008zm67.497 151.922s-46.296-3.28-68.425 0l5.928-4.512-9.592-2.696c-15.44-27.481 1.376-60.017 10.056-69.201-1.184 6.28-3.744 11.952 5.728 13.088 10.233-3.32 15.265.96 15.089 12.856-5.336-2.136-8.305-.456-8.889 5.032l-11.456-6.656c-4.016 5.568-2.264 10.128 5.264 13.688 4.112 1.872 13.089-4.096 17.649.928l-3.4 8.056c5.96.464 21.28-6.424 18.48 7.96l7.832-16.248c12.32-4.552 17.896-11.648 16.72-21.28 12.152 14.256-3.264 22.68-5.96 30.504l7.128-3.728c7.248 7.272 4.328 16.28-8.76 27.009l6.616 5.208-.008-.008zm-23.888-59.105c4.64-8 8.704-9.256 13.408-3.056 2.84 5.016 2.76 9.736-.232 14.152-2.92 3.024-16.344-.136-13.176-11.096zm110.817 25.64c10.976-1.584 18.569-11.008 22.777-28.272l12.704 19.016c-6.04 3.464-9.472 13.344-10.312 29.64-1.896 6.649-12.592 12.857-18.937 16.273-1.848.992 9.393-9.752 1.8-15.913-4.68 4.721-15.512 23.145-15.872 22.785-3.712 1.448 2.44-10.712-1.48-9.032-2.272.968-11.816 15.128-14.072 16.272-2.168 1.096 1.752-8.904-.36-7.6-3.792 2.368-8.672 13.416-12.024 16.776 1.152-14.432-1.816-25.296-8.904-32.592-5.992-2.272-9.808-1.728-20.081.56 1.832-12.249 1.328-24.441-1.52-36.569 18.209 38.241 59.865-24.656 54.945-36.568-11.12 14.632-26.976 12.424-47.552-6.633 37.536-5.368 39.424-10.32 23.232-25.28.24 3.32-6.344 8.112-19.184 14.64 6.688-6.208 10.008-11.36 9.96-15.456-1.088-9.216-13.936-16.92-24.873-6.76 1.568-1.368 3.744-2.128 6.328-1.824l2.401 5.152 6.528-3.432c9.952 5.84 2.4 23.008-12.713 15.112-6.216-4.376-6.392-10.888-3.16-14.408-2.696 2.688-5.264 6.48-7.48 11.664-2.912-5.048-14.352-1.872-13.968 27.697-7.56-21.633-12.584-44.753-26.552-30.441l15.8-41.52c4.464 7.352 5.08 10.576 21.288-1.064 8.584 14.952 24.457 2.288 28.849 21.632-16.489-2.4-24.729 3.088-25.753 15.112 6.808-11.536 14.784-13.512 25.281-11.36 3.824-7.152 10.016-9.144 21.872 6.44 14.328 4.616 15.368-14.152-3.776-23.248.016-.096.048-.184.064-.28-8.488-4.272-14.216-4.384-20.536-3.568 6.408-12.713 16.232-14.145 29.456-4.368 5.728-1.408 11.104-.992 5.8-7.041 61.009 17.505 32.225 102.874 20.032 124.45l-.008.008zM232.911 403.633l.4.272c15.936 10.824 30.896 2.656 36.776-.216 19.129 4.352 22.017-22.664 17.145-46.441-4.248 14.344-9.657 31.153-15.425 33.777 4.6-28.497 4.056-55.113-1.856-73.601-9.424-6.616-15.144 7.856-24.784 4.824-4.024.672-8.816-12.16-15.016-9.08-12.336 22.528-5.552 51.48 5.944 77.817 6.112 1.16 10.816.52 14.12-1.912l5.944 3.48 5.72-1.344 8.528.672-10.544 5.944-6.616-3.032c-5.528 4.736-6.672 4.544-13.576 0l-6.616 4.6-1.344-5.72c-11.664-5.048-8.752-11.216-14.248-25.337l-.256-1.32c-5.536 23.665-1.008 40.785 15.696 36.609l.008.008zM196.51 165.349l-2.584-1.408c-1.448-.192-2.848-.312-4.192-.312l2.336 6.472 4.44-4.744v-.008zm-17.584 69.649c-21.184-6.648-33.641-19.721-37.345-39.209-5.016 9.968-6.488 18.424-5.328 25.768.176 1.136-1.088 9.849-.784 10.937.424 1.504 2.464-4.64 3.112-3.232.472 1.04-3.112 10.664 1.016 14.168.84 1.432 2.368-8.304 3.424-6.96 1.072 1.36 3.568 10.648 4.84 11.928 1.232 1.248 1.232-5.504 2.633-4.328 1.144.968 1.488 17.328 8.104 21.68 1.04.776-1.44-15.496 3.112-14.048 12.448 11.432 4.128 43.24 25.616 47.425-7.864-25.049-12.16-52.929-8.384-64.129h-.016zM281.78 422.585c-20.52 9.16-46.816 7.712-53.6-1.528.256 8.944 6.784 17.464 32.424 15.016 15.808-1.784 22.856-6.28 21.176-13.488z" fill="#e64100"/><path d="M284.166 252.878l-7.129 3.728c2.705-7.824 18.121-16.248 5.961-30.504 1.176 9.632-4.4 16.728-16.721 21.28l-7.832 16.249c2.8-14.385-12.52-7.497-18.48-7.961l3.4-8.056c-4.56-5.024-13.536.944-17.648-.928-7.52-3.56-9.28-8.12-5.264-13.688l11.456 6.656c.592-5.488 3.552-7.16 8.888-5.032.176-11.888-4.848-16.176-15.088-12.856-9.472-1.136-6.912-6.808-5.728-13.088-8.68 9.184-25.505 41.72-10.056 69.201l9.592 2.696-5.928 4.512c22.128-3.28 68.425 0 68.425 0l-6.617-5.208c13.089-10.728 16.001-19.737 8.761-27.009l.008.008zm-37.698-86.048c2.912-10.064 5.104-18.32 3.088-21.641-3.776-7.896-16.144 18.201-11.68-25.408 3.952-16.456 2.8-28.48-3.432-36.056 1.448 19.512-5.192 35.992-19.921 49.456 10.617 7.8 16.913 17.305 18.889 28.505l13.048 5.152.008-.008zm102.459-39.642c5.304 6.048-.072 5.624-5.8 7.04-13.224-9.777-23.048-8.345-29.456 4.368 6.32-.816 12.048-.704 20.536 3.568-.016.096-.048.176-.064.28 19.144 9.096 18.104 27.864 3.776 23.248-11.856-15.584-18.048-13.592-21.872-6.44-10.496-2.16-18.472-.176-25.28 11.36 1.024-12.016 9.272-17.512 25.752-15.112-4.392-19.352-20.264-6.688-28.848-21.632-16.209 11.64-16.825 8.424-21.289 1.064l-15.8 41.52c13.968-14.312 19 8.808 26.552 30.441-.384-29.569 11.057-32.745 13.969-27.697 2.224-5.184 4.784-8.976 7.48-11.664-3.232 3.52-3.048 10.04 3.16 14.408 15.104 7.896 22.664-9.272 12.712-15.112l-6.528 3.432-2.4-5.152c-2.592-.296-4.76.464-6.328 1.824 10.944-10.16 23.792-2.456 24.872 6.76.048 4.096-3.272 9.248-9.96 15.456 12.848-6.528 19.424-11.32 19.184-14.64 16.184 14.968 14.304 19.912-23.232 25.28 20.576 19.057 36.432 21.265 47.553 6.633 4.92 11.904-36.737 74.801-54.945 36.568 2.848 12.128 3.352 24.32 1.52 36.569 10.272-2.288 14.088-2.832 20.08-.56 7.088 7.296 10.056 18.16 8.904 32.592 3.352-3.352 8.232-14.408 12.024-16.776 2.104-1.312-1.808 8.688.36 7.6 2.256-1.136 11.8-15.304 14.073-16.272 3.92-1.672-2.233 10.48 1.48 9.032.36.36 11.192-18.072 15.872-22.784 7.592 6.16-3.64 16.904-1.8 15.912 6.336-3.416 17.032-9.624 18.936-16.273.832-16.296 4.272-26.176 10.312-29.64l-12.704-19.016c-4.208 17.256-11.8 26.688-22.776 28.272 12.192-21.576 40.968-106.945-20.033-124.45l.008-.007zm-77.61 109.905c3-4.416 3.072-9.136.232-14.152-4.704-6.208-8.768-4.952-13.408 3.056-3.168 10.968 10.256 14.12 13.176 11.096zm108.393-122.12c-6.592 19.904 1.992 32.952 25.752 39.152 12.289 29.281 13.209 55.041 2.752 77.273 5.713 11.6 6.065 29.457 1.032 53.577l2.409 8.928c7.272-23.552 21.728-23.28 6.52-63.193l5.496 2.064c.752-44.984-5.04-66.825-14.769-80.361 20.241-5.832 30.201-14.984 29.881-27.456-5.496-6.2-46.705 3.416-59.065-9.976l-.008-.008zm-242.889-12.36L134.773 89.9c4.672-2.576 7.217-3.912 12.801-5.448.928-.256-2.792-1.816-8.817-3.096 5.745-1.952 16.857 1.136 18.185.856 1.608-.336-3.608-2.376-1.952-2.664 1.344-.24 8.816.136 11.608 0 9.928-.28 16.984-1.064 26.464-1.928l-10.128-9.264c21.072-.192 42.705 3.168 64.889 10.072l-.248.488c3.72 12.72 5.496 27.041 1.296 52.793 29.336-29.952 24.048-10.576 27.68-5.496 13.593 13.176 25.817-22.392 67.457-11.744-19.504-25.425-48.368-13.952-53.656-12.296-23.129 14.296-35.569-2.184-27.145-15.177 14.976 5.608 32.897 2.296 45.281-6.184-11.8.92-23.481-.136-35.049-3.184 14.761-10.128 77.249-7.112 77.249 18.64 7.744-1.768 13.673 1.32 17.777 9.264 46.512-11.416 55.8 8.056 73.561 5.928h.024c-10.128-28.337-45.681-9.264-54.521-15.192-4.56-5.224-10.088-10.624-16.624-15.616-1.304-1-6.392-.496-7.776-1.456-1.352-.936 5.76-2.76 6.288-3.984.08.072-12.817.496-14.169-.272-2.112-.52 1.4-3.472.336-4.024-1.896-1.456-9.968.84-11.856-.984-3.608-1.96 5.048-2.232 3.392-2.904-23.824-9.6-55.64-11.592-96.521 5.96l-.368.728c-37.984-4.712-55.625-23.936-95.057-8.72-1.632.632 7.472 5.488 5.76 6.24-1.704.744-19.96-3.392-19.96-3.568 0 0 10.152 5.52 9.208 6-1.112.568-13.945-2.512-15.097-1.896-1.232.664 5.737 5.096 4.456 5.816-1.096.624-5.672.032-6.8.696-5.304-.144-7.912 2.464-11.536 4.824-10.96-4.192-28.24-3.344-42.12 7.136-.04.032-.08.056-.112.08 24.824.152 44.112 4.248 57.856 12.281l-.008.008zm-36.739 105.265c-3.344-40.617-3.256-65.665 19.496-85.433-8.048-13.584-17.928-18.793-29.624-15.625-13.216 6.249-12.992 17.017-2.68 27.553-13.112-5.048-32.96-12.44-11.992-42.377-15.712 2.464-35.216 37.233 9.168 54.145 1.368 20.744-7.496 20.968-12.28 40.081 16.48 3.872-4.184 40.592 9.688 56.224l.016.016 18.208-34.584zm302.636 82.224c-19.873 1.832-22.937 36.272-55.737 22.688-.944 8.16-2.784 13.92-5.496 17.28l-7.088-7.008c-2.784 11.904-14.017 28.121-33.681 48.657l-3.984-7.088c7.04-20.44 37.049-52.065 18.08-79.313-1.544 6.48-6.248 8.712-12.88 7.064v.096l-11.784-6.336c6.104 6.416 7.936 13.816 5.496 22.2-1.672 9.176-6.792 18.336-14.472 27.92 1.632-21.976.696-35.96-2.808-41.944l-7.512 9.648c-.992-9.32-2.224-13.504-3.704-12.552l-5.72 4.256-5.944-2.016-3.36 2.24-3.481-1.568-5.048 2.136-6.168-5.496c-2.008 1.736-4.064 6.216-6.168 13.448-5.272-2.016-7.184-11.88-11.208-14.248-5.496 14.024-7.184 15.36-5.944 38.688-.152.512-.28 1.048-.392 1.6v-.04c-10.88-18.568-14.296-34.216-6.4-45.888-9.152-6-14.768-14.424-10.304-40.865-5.152 1.376-4.816-3.328-.2-10.52-7.296 1.048-7.232-2.768.2-11.456-12.704-2.744 8.928-17.856 16.656-35.105-6.696-.952-13.224 2.824-23.528 15.873-8.24 5.84-19.921 4.808-11.961-10.009-4.632-3.184-6.096-6.352-4.376-9.504 1.768 2.664 5.184 4.872 10.249 6.608-2.768-3.064-4.825-5.712-6.129-8.136 14.801 10.048 23.929 4.504 25.025-10.88 1.888 2.24 3.472 5.136 4.576 9.144 7.728-5.528 14.224-2.984 21.432 10.752 7.208-18.2-2.752-23.008-18.92-28.352 6.552-3.592 10.328-2.216 19.088 2.52-8.072-30.144-34.856-16.064-39.208-27.104-.048-8.024 10.528-9.568 17.224-10.616-23.896-12.209-30.737-10.977-42.193-5.249-24.6 16.257-4.336 47.161-36.592 55.073-3.264-21.232 6.152-44.312 14.256-56.065-7.232.296-13.52 4.249-18.496 11.553-1.296 1.904 3.488 1.608 2.368 3.96-1.08 2.288 1.544 4.016-8.952 9.92-.608 1.832 4.504 1.368 3.992 3.392-.768 3.016-10.528 7.128-10.224 17.04 9.296-8.672 7.752-3.704 4.944 1.856-.2 2.304-4.128 9.04-4.24 11.488-.528 11.408-.12 24.337 1.36 38.681l8.76-8.472S98.329 299.43 191.467 338.71c2.296 18.385-14.025 12.369-31.241.264-3.952-3.656-5.72 8.049-5.968 7.545-1.784-1.368-2.848-14.185-4.6-15.625-1.576-1.296-2.056 6.504-3.576 5.176-1.632-1.424-4.288-11.976-5.816-13.4-5.2-4.848-9.664-9.552-12.656-13.344-16.856 3.264-23.273-19.024-25.153-42.113-4.936 2.785-7.112 6.585-8.552 9.873-.944-4.608-2.712-12.593 0-18.337-6.296 1.68-9.832-.16-10.616-5.496-6.336 11.76-6.688 18.049 8.472 28.209 2.8 19.448 8.296 33.976 16.481 43.584 24.128-7.008 26.912 9.2 24.128 16.113 42.84 38.832 49.825 15.368 64.449 40.328 22.08 40.401 11.368 61.817 66.681 59.697 16.304-.352 27.112-9.616 32.448-27.76l.464-.424c4.424-12.617 4.728-18.401 5.016-25.593 17.128-3.544 33.361-44.752 48.737-50.249 8.552-4.096 19.232-4.48 29.856-8.4 4.128-1 7.224-6.928 8.416-7.592 1.288-.72 2.768-.232-.688 6.824 8.209-5.208 7.496-15.408 8.441-16.2 1.2-.992.215 5.944 1.392 4.752 3.928-2.208 3.2-9.488 4.16-10.648 1.008-1.224.504 6 1.48 4.584 1.992-2.896 3.896-6.2 5.712-9.992.032-.064.064-.128.096-.2l-6.296-10.192-.016.008zM193.923 163.94a53.83 53.83 0 0 1 2.584 1.408l-4.44 4.744-2.336-6.472c1.344 0 2.744.12 4.192.312v.008zm-32.225 87.761c-4.552-1.44-2.064 14.824-3.112 14.048-6.608-4.344-6.952-20.712-8.104-21.68-1.4-1.176-1.4 5.576-2.632 4.328-1.264-1.28-3.768-10.568-4.84-11.928-1.056-1.344-2.584 8.392-3.424 6.96-4.12-3.504-.544-13.136-1.016-14.168-.64-1.416-2.688 4.736-3.112 3.232-.304-1.088.968-9.8.784-10.936-1.16-7.344.312-15.8 5.328-25.769 3.712 19.489 16.16 32.553 37.344 39.209-3.776 11.2.521 39.081 8.385 64.129-21.489-4.184-13.169-36.001-25.617-47.425h.016zm55.513 115.322l.256 1.32c5.496 14.12 2.584 20.288 14.248 25.336l1.344 5.72 6.616-4.6c6.904 4.544 8.048 4.736 13.577 0l6.616 3.032 10.544-5.944-8.528-.672-5.72 1.344-5.945-3.48c-3.304 2.432-8.008 3.072-14.12 1.912-11.496-26.344-18.28-55.297-5.944-77.817 6.2-3.088 10.992 9.744 15.016 9.08 9.649 3.032 15.369-11.44 24.785-4.824 5.912 18.496 6.456 45.113 1.856 73.601 5.768-2.624 11.176-19.44 15.424-33.776 4.872 23.768 1.984 50.784-17.144 46.44-5.88 2.872-20.833 11.049-36.777.216l-.4-.272c-16.704 4.184-21.224-12.944-15.696-36.608l-.008-.008zm10.968 54.033c6.784 9.248 33.081 10.696 53.601 1.528 1.68 7.208-5.368 11.704-21.176 13.488-25.641 2.448-32.169-6.072-32.425-15.016zM94.188 258.446c12.656-14.88 11.825-20.864 3.064-35.176-3.624 5.48-2.424 23.336-3.064 35.176z" fill="#0b162a"/></svg>