<svg xmlns="http://www.w3.org/2000/svg" width="500" height="500" xmlns:v="https://vecta.io/nano"><path fill="#fffffe" d="M412.935 244.767c-2.166-1.096-1.896-3.052-.335-4.212 18.435-13.639 30.877-31.141 30.877-58.155 0-31.987-22.91-76.881-112.491-76.881h-230.91l-52.298 90.968H86.18c4.29 0 7.753 3.458 7.753 7.727v90.811c0 4.269-3.463 7.734-7.753 7.734H44.999L97.852 393.4l244.079-.028c78.771 0 112.826-41.03 112.826-85.07 0-29.17-20.744-52.805-41.822-63.534"/><path fill="#fb4f14" d="M276.167 229.364h-37.932v-36.455c.036-3.821 3.135-6.901 6.969-6.901h30.962c18.171 0 24.92 9.249 24.92 21.323 0 12.806-6.748 22.034-24.92 22.034zm0 83.867h-30.962a6.96 6.96 0 0 1-6.969-6.951v-36.399h37.932c18.171 0 24.92 8.893 24.92 21.33 0 12.785-6.748 22.02-24.92 22.02zm108.265-66.408c-2.779-.655-2.323-4.055-.292-4.817 25.041-9.462 39.656-26.31 39.656-55.999.349-39.806-34.882-67.162-92.182-67.162H114.457L76.354 186.05h26.224a9.36 9.36 0 0 1 9.378 9.356v108.441a9.36 9.36 0 0 1-9.378 9.356H76.647l38.388 66.871 226.898-.028c64.782 0 91.476-42.994 91.476-74.626 0-27.797-20.523-51.795-48.977-58.596z"/><path fill="#000" d="M188.332 361.092c-40.262-75.565-50.844-162.442-35.844-242.247h-38.031L76.354 186.05h26.224a9.36 9.36 0 0 1 9.378 9.356v83.206c19.539 31.66 47.837 61.983 76.376 82.48zm189.886-234.769c-46.084 68.237-71.053 155.206-59.844 234.421 13.732-66.636 49.554-128.178 105.35-172.758.014-.662.071-1.302.071-1.978.235-27.434-16.425-48.963-45.578-59.685zm-77.253-7.477c-7.226 18.897-14.815 41.699-21.2 67.297-1.14-.085-2.344-.135-3.599-.135h-30.962c-3.834 0-6.934 3.081-6.969 6.901v36.455h32.566c-2.152 13.07-3.891 26.609-5.045 40.518h-27.521v36.399a6.96 6.96 0 0 0 6.969 6.951h19.012c.285 21.821 2.23 44.21 6.321 66.814h-28.304c-22.333-53.844-53.067-144.94-22.497-261.2h81.229z"/></svg>