<svg xmlns="http://www.w3.org/2000/svg" width="500" height="500" fill="none" xmlns:v="https://vecta.io/nano"><g clip-path="url(#A)"><g fill="#fff"><path d="M455 368.078v-.344c-1.845-24.945-7.421-50.176-17.056-77.146l-.115-.271-.107-.27-1.123-2.682.131.296c-4.018-10.431-12.398-14.933-24.739-13.399l-5.552.607-2.263.196c-9.52.878-23.19 2.1-35.26.976l-14.973-35.44c3.024-1.823 5.557-4.356 7.38-7.38 1.27-2.338 2.171-4.858 2.673-7.47 4.579-.563 8.824-2.686 12.021-6.011 4.551-4.969 7.134-13.94.697-24.108l.328.533-20.057-36.203-11.865 5.043c-47.56-76.67-138.056-88.412-204.845-59.598-60.581 26.15-119.26 95.12-85.28 203.557a224.96 224.96 0 0 0 13.669 33.514 30.96 30.96 0 0 0 .648 10.143v.18l.057.181c1.738 6.56 3.321 10.889 7.38 19.918a23.17 23.17 0 0 0 6.281 16.58c6.675 7.183 17.269 9.996 29.069 7.716l-.566.082c15.58-2.189 25.748-6.765 31.062-9.84 23.386 16.4 53.956 23.682 81.098 19.172 17.687-2.936 31.98-10.586 41.82-22.222a87.94 87.94 0 0 0 15.67-.459 71.51 71.51 0 0 0 22.698-5.232c10.028 11.701 23.591 20.09 39.868 24.395 19 5.01 40.549 4.674 61.049-.82a21.31 21.31 0 0 0 10.66-2.009c21.533-4.92 26.339-6.978 29.52-9.701.047-.031.088-.07.123-.114 7.675-5.232 10.176-15.088 9.898-22.37zm-54.014 21.402c-18.179 4.674-37.662 4.92-54.062.615-14.9-3.936-32.505-12.562-42.288-34.219-.602-1.115-1.112-2.278-1.525-3.476 0 0 4.994.098 8.274-.181 15.178 32.513 54.292 38.54 87.814 29.988 0 0 3.066-.525 3.927-1.452.697-1.64.624-5.74.624-5.74-.041-.943-.82-20.959-4.51-34.276a5.55 5.55 0 0 0-1.132-2.599 5.99 5.99 0 0 0-1.73-.443 21.02 21.02 0 0 0-4.149.426c-20.673 4.92-52.653 9.02-77.9 11.562-.05 0-1.985.296-5.396.443l-2.731.074c-6.741.022-13.473-.527-20.122-1.64l-93.776-15.334 5.035-6.896 90.668 14.891c13.825 2.075 20.245 1.082 20.418 1.041 24.427-1.361 69.593-8.052 80.515-10.963 0 0 5.904-1.402 6.651-2.157.483-.483-.738-4.92-.738-4.92-.05-.147-4.469-14.62-6.683-20.196v.115c-.058-.23-1.017-3.321-2.034-3.789h-.738s-1.304.246-2.895.607c-21.32 3.87-60.171 9.307-83.025 10.66 1.977-.123-9.249.402-17.974-.205-12.415-.697-26.24-3.78-39.909-18.663-.148-.148-15.318-14.604-21.427-21.32a4.16 4.16 0 0 1 .886-5.806c1.131-.902 3.37-1.312 4.624.156 2.682 3.583 18.04 19.434 25.593 26.519 8.413 6.56 14.448 9.979 26.182 11.308 4.727.474 9.477.693 14.227.656 15.457.393 71.799-6.495 88.363-9.767a15.87 15.87 0 0 0 3.362-.77v-.32l.099-.697c.475-.583 1.094-1.032 1.796-1.304.848-.399 1.792-.548 2.722-.429a4.92 4.92 0 0 1 2.526 1.101c11.816 21.78 23.484 62.23 20.787 92.783-.004.723-.195 1.432-.554 2.058s-.875 1.149-1.496 1.518a6.75 6.75 0 0 1-2.738.482 6.74 6.74 0 0 1-2.699-.663s.082.222-2.862 1.222zm-25.576-45.436c1.55-.287 7.913-1.698 7.913-1.698 6.733 10.119 17.548 17.417 17.548 17.417.279 2.542.509 9.02.509 9.02-16.982-8.331-25.97-24.756-25.97-24.756v.017zm-59.737 12.587c-.582-.951-1.148-1.935-1.64-2.944l-.82-1.591c1.312-.147 2.05-.27 2.05-.27l4.24-.443a42.26 42.26 0 0 1-3.83 5.231v.017zm-129.068-23.149a5.37 5.37 0 0 1-2.5-.792c-.756-.466-1.384-1.113-1.829-1.881a2.38 2.38 0 0 1-.234-1.325 2.39 2.39 0 0 1 .521-1.242l11.791-18.04c.747 1.419 6.667 4.978 6.667 4.978l-11.365 16.875c-.329.494-.788.887-1.326 1.136a3.22 3.22 0 0 1-1.725.275v.016zm31.513-60.754c1.758 2.28 3.711 4.4 5.838 6.339l-9.02 14.325c-1.213.968-3.772 0-5.362-1.558-.369-.352-2.116-2.156-1.066-3.419l.057-.066.041-.082c.115-.237 2.075-3.493 9.512-15.555v.016zm14.465 32.8l-15.867-10.586 1.336-1.295c5.74 3.673 13.186 8.585 16.4 11.045 5.798 4.395 2.665 9.692 2.665 9.692.583-3.189-.836-6.363-4.534-8.864v.008zm-17.548-9.602l16.531 11.07c2.46 1.78 4.92 4.83 3.469 8.963-.214-3.871-5.011-6.921-5.011-6.921L206.81 295.18c-3.116-1.96-2.796-4.666-1.164-6.084-.238 4.239 6.297 7.667 9.389 6.822v.008zm-9.209.705c5.494 3.453 17.056 10.447 20.394 12.3 3.575 1.993 4.296 2.944 4.296 2.944 4.15 3.944 3.354 7.864 1.337 10.603-2.304 3.075-6.708 5.043-10.381 2.607l-4.986-3.083-1.812-1.082-15.514-9.537h-.05s-2.583-1.197-3.23-3.575c-.435-1.64.073-3.444 1.508-5.461 3.28-4.609 4.871-7.249 5.568-8.471.705 1.484 2.87 2.747 2.87 2.747v.008zm-2.78 19.59l17.639 10.783c7.125 4.535 12.619-1.984 14.358-4.297 1.345-1.804 5.494-7.38 5.354-12.16-.147-4.641-3.706-7.134-6.888-9.225l-14.809-9.725 6.937-11.234 14.375 14.013a59.86 59.86 0 0 0 13.792 11.251c1.091.639 2.182 1.213 3.28 1.755 2.952 9.02 6.167 16.982 7.561 22.861-1.124-6.847-3.165-14.178-5.166-21.754 7.888 3.403 15.58 4.452 22.665 4.846l.992.057.467 1.033c-2.796 7.454-8.011 15.449-14.76 20.32 0 .385.049.779.066 1.173l-6.134-.976-4.764-.763-2.304-.361-58.269-9.282 5.608-8.315zm174.701 14.973c-1.262.558-7.437 1.452-7.437 1.452-1.476-2.805-10.816-25.674-10.816-25.674 1.115-.14 7.38-1.165 7.38-1.165a258.73 258.73 0 0 0 10.873 25.379v.008zm1.837-.565l-2.812-6.47 16.195.057c1.123 4.166-2.764 4.313-2.764 4.313l-10.619 2.1zm-52.742-15.162l.049 1.164 36.802 6.314c.697 2.017 3.329 7.979 3.329 7.979l-40.057-6.814v1.246a63.8 63.8 0 0 1-2.058 13.202l-5.355.533c2.608-8.651 2.927-18.319 1.788-27.618l5.108-.557.394 4.543v.008zm-20.894 24.813a34.47 34.47 0 0 1-8.479.189c-2.525-4.773-5.313-11.275-12.439-26.88 2.831.322 5.689.322 8.52 0l12.398 26.691zm-59.86-110.7a8 8 0 0 0 .82 3.846c.82 1.591 2.403 5.584 2.403 5.584.27-.262-3.6 4.551-5.74 7.946l-13.022 21.369-3.501-3.854s-1.501-1.788-2.903-1.788l15.137-24.05a104.09 104.09 0 0 1 6.823-9.004l-.017-.049zm79.179-26.486a4.04 4.04 0 0 1 4.609 3.026c.221 1.517-.558 3.28-3.469 3.764l-1.361.27c-17.86 3.567-38.089 7.618-55.006 14.49-5.321 1.927-8.159 3.542-11.143 5.805 0 0-1.64-3.567-2.239-4.608-.943-1.64-1.074-1.837-1.861-2.28 3.154-1.964 6.491-3.62 9.963-4.944 12.406-5.207 38.212-11.874 60.524-15.474l-.017-.049zm-8.093-23.977c-1.041 3.362.935 8.545.935 8.545l4.871 13.489-2.526.475-5.1-14.612c-1.493-4.551-.419-6.757-.419-6.757l2.239-1.14zm1.984-.943l2.518-1.304s.213-.139.205-.098c-.093.305-.132.624-.115.943-.049.894 0 1.337.927 3.903 1.492 4.018 9.257 20.139 10.159 22.485 4.494 11.668-7.117 13.825-8.323 8.667 12.35-.935 7.331-13.858.328-12.038-2.673-6.56-4.78-13.21-4.78-13.21s-2.723-7.142-.902-9.299l-.017-.049zm42.575 25.379h.09.09c1.476.213 2.354 2.116 2.206 3.69-.082.82-.59 2.772-3.493 2.772-2.632-.574-9.512-1.23-13.038-1.566 0-2.944-1.812-7.167-1.812-7.167 3.919.475 13.899 1.632 15.973 2.32l-.016-.049zm-28.979 11.652s2.534-1.73 2.673-3.558l8.897.049c.017.049-2.189 4.215-11.554 3.559l-.016-.05zm-80.089 10.578c.609-.009 1.214.114 1.771.361l34.227 75.793c-2.822.109-5.647-.078-8.43-.558l-31.685-69.331a3.55 3.55 0 0 1 0-3.747c.444-.71 1.05-1.304 1.769-1.733a5.25 5.25 0 0 1 2.364-.735l-.016-.05zm2.246 25.42l1.362 3.01c-6.134 11.48-6.052 24.329-3.682 36.514l-.599-.467-2.37-2.247a551.11 551.11 0 0 1-17.728-17.966l13.571-21.82 4.772-7.315 4.674 10.291zm2.542 5.601l20.238 44.608a43.31 43.31 0 0 1-21.861-8.29c-2.329-12.161-3.01-24.551 1.64-36.302l-.017-.016zm172.856 125.854l-16.851 4.51c.453-2.648.643-5.335.566-8.02 24.854-5.338 1.263-7.585 1.263-7.585 5.486 1.689 5.33 3.649 5.33 3.649-2.386.139-6.56-1.123-6.56-1.123.139-1.55-.279-7.872-.279-7.872 6.462 2.812 7.487 2.009 14.186 3.509 6.864 1.55 3.502 4.363 3.502 4.363-3.502 4.362-16.4 6.182-16.4 6.182 21.615-2.812 19.68-8.708 19.68-8.708 8.774 5.765.049 9.832-4.437 11.095zm-3.46-51.939s-3.223 1.64-18.122 4.305l-1.763-7.019s12.587-2.624 17.491-4.461c0 0-.091-1.64-2.518-1.591 0 0-12.775 3.28-15.727 3.518l-.697-1.968 14.596-2.952s7.724-2.665 9.405 3.239c0 0 1.706 5.1-2.665 6.929h0zm13.571 43.837c0-1.689-2.616-4.83-7.118-5.74.052-1.279.039-2.56-.041-3.838-1.123-11.48-5.239-32.226-5.239-32.226 6.363-2.066 5.797-15.079-5.06-15.006a150.22 150.22 0 0 0-6.412-21.205c5.904-3.231 3.14-8.667-.099-9.659 0 0 5.904-1.263 8.619 8.946 9.881 27.675 17.548 65.608 15.35 78.728h0zm-23.247-83.287c.047.812-.21 1.613-.721 2.246s-1.239 1.054-2.042 1.181l-.927.197c-2.304.722-6.913 1.804-11.529 2.673-1.736.386-3.49.684-5.256.894-.607-1.337-1.025-2.714-2.78-6.117a158.58 158.58 0 0 0 16.088-3.502c1.331-.332 2.681-.584 4.043-.754.813.074 1.574.434 2.146 1.017a3.44 3.44 0 0 1 .978 2.165h0zm-24.961-1.009c-.849-.708-1.892-1.142-2.993-1.246 3.756.262 14.932-.82 14.932-.82-2.107.795-11.939 2.066-11.939 2.066zm-10.947 1.558c-5.059 1.263-16.752 2.542-16.752 2.542l-2.395-5.486c7.081 1.022 14.253 1.259 21.386.705-.57.059-1.103.31-1.51.713a2.51 2.51 0 0 0-.729 1.501v.025zm-28.126-75.514c.312 3.666.058 8.2-1.82 11.62-2.198 3.993-5.215 6.56-10.972 7.593-.139 0-.451.049-.82.074l-.566.073c-.426 0-.82.066-1.238.123l24.854 58.885c-3.665.664-7.683.934-7.683.934l-24.075-56.457a10.52 10.52 0 0 0-1.222 1.46c-.23.279-.467.541-.713.82-3.74 4.682-6.019 10.709-7.298 17.113a37.05 37.05 0 0 0-.394 1.936c11.373 17.482 26.658 24.042 26.658 24.042l3.83 9.241c-15.179-4.411-27.88-18.179-31.406-22.304v1.14a87.96 87.96 0 0 0 2.132 20.115c.721 2.269 1.361 4.545 1.918 6.83l-5.19.525a91.3 91.3 0 0 0-4.256-12.71c-8.577-20.303-31.98-11.012-30.34 1.206l-19.836-43.772a65.64 65.64 0 0 1 13.161-10.972c-3.082 1.423-5.959 3.255-8.552 5.445a52.81 52.81 0 0 0-5.093 4.453l-1.254-2.657-3.649-8.061c3.493-2.246 7.052-4.551 11.545-6.174 13.014-5.289 28.044-8.897 42.427-11.907l2.403-.492c.434 7.175-3.198 9.914-9.455 11.218-4.1.82-7.38.976-9.069 1.542l3.879.131c3.562-.14 7.08-.831 10.43-2.05 3.903-1.452 6.847-4.1 5.592-11.128l2.009-.41c1.058 6.7.074 13.186-12.931 14.441 2.222 1.533 22.468-2.223 34.653.574.295.131 5.404 1.894-.434 4.444 11.307-2.517 11.931-13.784 9.782-22.14l.459.057c1.796.129 3.584.356 5.355.681l3.764.443c8.421.82 7.642-9.119 3.222-10.398a29.31 29.31 0 0 0-5.084-1.156l-1.18-.131-10.505-23.419 5.814-2.698 15.031 27.117c6.978 11.078-4.592 15.646-10.972 12.3a7.49 7.49 0 0 0-2.911 2.436v.024zm-73.414 156.538s-10.66 1.435-19.262-.32c-21.492 32.866-79.688 30.66-115.276 2.895l-2.017-1.468c-2.46 1.862-12.915 9.143-32.989 12.243-16.867 3.28-23.829-7.7-21.812-15.129-4.977-10.988-6.355-14.801-8.003-20.992a19.78 19.78 0 0 1 0-9.397 215.83 215.83 0 0 1-14.539-35.047C5.18 112.017 257.38 30.943 339.216 177.231c1.599.14 2.558.517 3.058 1.55l2.247-.902 9.84 22.296c-1.222-.246-4.592-.533-5.42-.599.003.038.003.077 0 .115l-1.681-.156-.82-.041c-2.14-6.609-4.92-15.014-6.864-19.934-1.166-.185-2.345-.278-3.526-.279 0 .058.058.09.082.14 1.501 2.804 6.06 16.908 7.577 20.754 2.099 5.338 1.952 8.339 1.952 8.339l-9.799-.188c-.156-2.862-2.87-8.241-2.87-8.241l-3.649-7.38-.992-2.108-3.731-7.962a17.36 17.36 0 0 1-1.28-4.395c-.656-5.15 4.412-5.15 4.543-5.15 2.632.049 4.781 1.017 6.905 4.002h1.353c-3.051-6.085-4.773-7.962-6.798-11.324-38.114-54.268-101.434-70.34-157.243-56.777 70.684-10.349 124.64 20.065 151.503 65.526l-7.708 3.911c-.779 0-3.666-.073-4.633 0-1.681.14-3.28.222-2.108 4.223a57.58 57.58 0 0 0 1.829 5.478c.82 2.189 3.362 8.799 5.232 14.424l-1.977.377c-.344-1-.721-2.042-1.148-3.141-2.197-5.592-4.846-12.849-5.617-15.317-.401-1.271-.992-3.707-.278-5.806 0 0-2.674 2.099-.287 7.774l6.035 16.736-2.46.484c-18.311 3.673-36.236 8.528-46.306 12.743 0 0-7.544 2.73-12.89 7.093a.76.76 0 0 0-.312.418 7.82 7.82 0 0 0-3.977 2.812 31.56 31.56 0 0 0-3.28 2.854c-2.115 2.46-3.968 4.6-6.33 7.847-2.066 3.084-9.496 14.834-16.121 25.568-.593.215-1.147.525-1.64.918-.926.724-1.643 1.681-2.075 2.774a6.59 6.59 0 0 0-.385 3.442l-9.84 15.859a5.99 5.99 0 0 0-4.6 2.845c-1.296 2.6-6.938 11.849-7.954 12.874a7.33 7.33 0 0 0-1.318 2.801c-.234 1.017-.249 2.072-.044 3.095l-.508 1-12.39 18.483c-.516.677-.834 1.484-.918 2.331s.069 1.701.442 2.466c.615 1.132 1.507 2.09 2.592 2.782a7.6 7.6 0 0 0 3.616 1.179c1.327.111 2.652-.242 3.747-1.001l65.912 10.98 3.222.533 5.158.861 4.174.697c-.487 6.939-2.299 13.719-5.338 19.975l1.156.156c18.187 1.476 31.16-1.755 40.131-7.839a59.38 59.38 0 0 0 2.46 4.264c-7.044 4.633-15.999 7.61-27.142 8.348v.024zm163.885 18.68l-.172.098c.18-.098.336-.246.516-.361l-.344.263zm-202.819-4.83c6.798-3.464 12.612-8.589 16.9-14.9h-.041c1.887-2.669 3.396-5.585 4.486-8.667-4.095 10.139-11.66 18.492-21.345 23.567z"/></g><g fill="#ff3c00"><path d="M231.911 270.063c4.92 5.248 12.243 12.694 17.729 17.967-1.247-7.889-1.542-16.007.09-23.51a44.99 44.99 0 0 1 5.19-13.3l-4.674-10.291-4.772 7.314c.008-.008-6.65 10.644-13.563 21.82zm17.654 38.778c3.816 8.075 6.649 16.58 8.438 25.33l4.764.763c-.5-2.46-1.025-4.666-1.443-6.56-.861-3.977-4.395-12.432-7.519-22.747a59.87 59.87 0 0 1-13.793-11.267c-.065-.074-7.716-7.38-14.374-14.014L218.7 291.58l14.81 9.725c3.181 2.091 6.74 4.584 6.888 9.225.139 4.781-4.01 10.357-5.355 12.161-1.738 2.312-7.232 8.831-14.358 4.297l-17.638-10.783-5.617 8.315 58.31 9.29c-1.296-9.217-4.338-17.63-6.175-24.969zm24.297-75.981c8.512-4.6 13.752-7.093 27.232-8.823l3.362-.468c2.296-.336 6.675-1.254 7.93-3.534.76-1.592 1.072-3.361.902-5.117-14.383 3.01-29.414 6.618-42.427 11.907-4.494 1.64-8.052 3.928-11.546 6.174l3.649 8.061c2.839-2.737 5.981-5.141 9.365-7.167.484-.352 1.533-1.033 1.533-1.033zm30.521-54.366c.42-.612.983-1.113 1.64-1.459-22.288-37.72-75.695-76.711-145.042-64.903-67.199 21.549-119.622 87.026-96.301 180.359 9.733 35.415 21.107 54.193 33.456 71.799 0 0-.558 8.544 14.186 4.1 13.35-4.043 21.492-4.346 35.432 6.043 24.297 18.106 66.109 26.322 93.054 12.3a46.09 46.09 0 0 0 21.32-23.583 42.81 42.81 0 0 0 2.214-15.883l-5.158-.861c-1.148 22.033-22.96 43.255-62.066 40.811-16.285-.607-33.669-8.528-44.042-14.178-4.772-3.198-18.22-10.742-24.674-12.169 5.609.304 19.68 7.643 25.519 11.046 12.062 6.207 28.888 12.177 43.206 12.775 26.084 2.46 55.678-10.922 58.835-38.818l-65.904-11.021c-1.095.758-2.42 1.112-3.747 1a7.61 7.61 0 0 1-3.616-1.178 7.62 7.62 0 0 1-2.592-2.782c-.373-.766-.526-1.619-.442-2.466a4.59 4.59 0 0 1 .918-2.331l12.39-18.483.509-1.001a7.34 7.34 0 0 1 .043-3.095c.235-1.016.684-1.971 1.318-2.8 1.017-1.025 6.658-10.275 7.954-12.874a5.98 5.98 0 0 1 1.946-1.965 5.99 5.99 0 0 1 2.621-.881l9.84-15.859a6.61 6.61 0 0 1 .385-3.442 6.6 6.6 0 0 1 2.075-2.773c.493-.394 1.047-.704 1.64-.919l16.121-25.567c2.362-3.28 4.215-5.412 6.331-7.848 1.026-1.025 2.122-1.979 3.28-2.853a7.81 7.81 0 0 1 3.977-2.813.76.76 0 0 1 .311-.418c5.347-4.362 12.891-7.093 12.891-7.093 10.069-4.215 27.995-9.069 46.305-12.743l-5.354-15.424c-.181-.484-3.01-6.281-.779-9.75zm-82.386 163.18a7.77 7.77 0 0 1 7.576 6.216c.357 1.749.099 3.567-.728 5.149a7.76 7.76 0 0 1-3.814 3.535c-.563.599-1.267 1.05-2.047 1.313a5 5 0 0 1-2.424.191 4.99 4.99 0 0 1-3.729-2.89 7.74 7.74 0 0 1 .787-12.163 7.75 7.75 0 0 1 4.404-1.351h-.025zm-61.057 24.518a5.68 5.68 0 0 1-4.19 1.148c-1.739 1.091-4.445.484-6.38-1.55-1.787-1.894-2.32-4.395-1.443-6.084-.377-2.747.467-5.478 2.411-6.847 2.944-2.066 7.38-.82 9.955 2.829s2.435 8.184-.353 10.504zm38.22-20.861c-13.005 13.768-38.794 13.678-53.447-5.1 24.796 23.009 47.92 7.806 53.447 5.1zm-23.517-16.4a15.27 15.27 0 0 1-4.978.771c-2.448-.055-4.861-.599-7.097-1.598a18.41 18.41 0 0 1-5.924-4.224c-6.905-7.224-7.38-18.376-1.001-24.838a15.02 15.02 0 0 1 5.011-3.359c1.88-.77 3.897-1.15 5.928-1.118 2.451.06 4.865.608 7.101 1.614a18.4 18.4 0 0 1 5.921 4.241 19.68 19.68 0 0 1 5.477 13.12l-10.438 15.391z"/></g><g fill="#311d00"><path d="M255.74 333.81l2.304.361a111.63 111.63 0 0 0-8.438-25.33c1.796 7.339 4.838 15.752 6.134 24.969zm-58.606 50.84c-14.317-.598-31.16-6.56-43.205-12.775-5.88-3.403-19.91-10.742-25.519-11.046 6.454 1.427 19.91 8.971 24.674 12.169 10.373 5.65 27.757 13.571 44.042 14.178 39.065 2.46 60.918-18.778 62.066-40.811l-3.223-.533c-3.157 27.896-32.75 41.27-58.835 38.818zm-29.552-90.093c-2.031-.033-4.048.348-5.928 1.117a15.04 15.04 0 0 0-5.011 3.36c-6.355 6.461-5.904 17.613 1.001 24.838a18.41 18.41 0 0 0 13.021 5.863 15.3 15.3 0 0 0 4.978-.771l10.438-15.441a19.68 19.68 0 0 0-5.477-13.12c-1.672-1.792-3.685-3.233-5.921-4.237a18.4 18.4 0 0 0-7.101-1.609h0zm-21.87 45.674c14.653 18.778 40.442 18.86 53.448 5.1-5.527 2.706-28.651 17.909-53.448-5.1zm71.094 14.948c.335.752.851 1.409 1.502 1.913a4.98 4.98 0 0 0 2.227.977c.811.138 1.644.072 2.424-.19s1.484-.714 2.047-1.314a7.79 7.79 0 0 0 3.717-3.246c.854-1.457 1.212-3.152 1.02-4.829a7.79 7.79 0 0 0-11.317-6.033c-1.5.776-2.707 2.018-3.44 3.539s-.952 3.239-.623 4.896a7.78 7.78 0 0 0 2.443 4.287h0zm4.535 2.083a4.27 4.27 0 0 1-3.987-2.595c-.333-.779-.426-1.64-.268-2.472s.559-1.599 1.153-2.202a4.27 4.27 0 0 1 4.66-.958c.784.321 1.455.867 1.928 1.57s.727 1.53.729 2.377a4.26 4.26 0 0 1-.311 1.628c-.21.517-.519.987-.91 1.385a4.26 4.26 0 0 1-1.371.931 4.23 4.23 0 0 1-1.623.336h0zm3.354-8.569c-1.091-1.222-3.838-1.787-5.412-.738-.714.443-1.444-.131-.542-1.049a4.56 4.56 0 0 1 1.619-.863c.593-.175 1.215-.227 1.828-.155s1.206.27 1.741.579a4.56 4.56 0 0 1 1.372 1.218c.788 1.139-.016 1.91-.606 1.008h0zm-2.51-5.633a6.35 6.35 0 0 1 5.734 3.981c.463 1.151.579 2.412.334 3.628a6.36 6.36 0 0 1-1.713 3.215c1.828-3.928.328-8.93-4.494-9.143-5.01-.197-6.675 4.83-5.806 7.462-1.689-1.591-1.107-9.11 5.945-9.143h0z"/></g><g fill="#fff"><path d="M218.741 346.906c-.902.918-.172 1.492.542 1.049 1.574-1.049 4.321-.483 5.412.738.59.902 1.394.132.631-1.008a4.54 4.54 0 0 0-1.376-1.227 4.56 4.56 0 0 0-3.585-.424 4.57 4.57 0 0 0-1.624.872h0zm3.305-2.165c4.822.213 6.322 5.215 4.494 9.143.872-.882 1.468-2 1.713-3.215s.129-2.477-.334-3.628-1.252-2.141-2.271-2.849-2.223-1.101-3.463-1.132c-7.052 0-7.634 7.552-5.945 9.143-.869-2.633.796-7.659 5.806-7.462zm3.51 8.241a4.22 4.22 0 0 0-5.085-4.077 4.23 4.23 0 0 0-2.147 1.171c-.584.594-.98 1.347-1.138 2.165s-.069 1.665.254 2.433a4.22 4.22 0 0 0 1.559 1.884c.694.461 1.509.706 2.342.704.558-.003 1.11-.116 1.624-.333a4.25 4.25 0 0 0 1.373-.931c.391-.398.7-.869.909-1.387a4.23 4.23 0 0 0 .309-1.629h0zm-4.256 3.346a3.38 3.38 0 0 1-1.867-.576c-.552-.372-.981-.899-1.234-1.514s-.318-1.293-.186-1.945a3.37 3.37 0 0 1 6.103-1.212 3.37 3.37 0 0 1 .315 3.164c-.17.411-.419.784-.734 1.098a3.38 3.38 0 0 1-1.1.732 3.37 3.37 0 0 1-1.297.253h0z"/></g><path d="M221.3 349.587a3.37 3.37 0 0 0-3.103 2.094 3.37 3.37 0 0 0-.183 1.947 3.36 3.36 0 0 0 .928 1.721c.473.469 1.074.788 1.728.916a3.37 3.37 0 0 0 1.946-.198c.614-.257 1.139-.69 1.508-1.245a3.38 3.38 0 0 0 .563-1.873 3.35 3.35 0 0 0-.259-1.292 3.34 3.34 0 0 0-.735-1.094c-.315-.313-.688-.56-1.099-.727s-.85-.252-1.294-.249h0zm-2.46 3.477c.098-.427.295-.213.394.115.918 1.451 3.476 1.566 4.247.442.402-.565.394.214.394.214-1.64 3.173-5.314 1.205-5.035-.771h0z" fill="#311d00"/><path d="M223.449 353.622c-.771 1.123-3.329 1.008-4.248-.443-.098-.328-.295-.541-.393-.115-.246 1.935 3.427 3.944 5.034.771 0 0 .009-.779-.393-.213z" fill="#fff"/><path d="M151.338 352.859c-1.944 1.369-2.788 4.1-2.411 6.847-.878 1.689-.345 4.19 1.443 6.084 1.935 2.034 4.641 2.641 6.38 1.55 1.493.187 3-.225 4.19-1.148 2.788-2.321 2.911-6.863.352-10.504s-7.011-4.896-9.954-2.829zm-.468 12.3c-1.812-1.903-2.124-4.543-.697-5.904s4.043-.902 5.855 1.008 2.124 4.56.697 5.904-4.043.911-5.855-1v-.008zm6.954-4.617a5.95 5.95 0 0 0-3.1-2.698c-.943-.18-.582-1.705.541-1.32a8.19 8.19 0 0 1 3.075 2.403c1.034 1.714-.065 2.575-.516 1.623v-.008zm1.279 5.314c5.182-6.741-4.92-14.588-8.872-8.356 3.312-10.168 16.678 2.616 8.872 8.364v-.008z" fill="#311d00"/><g fill="#fff"><path d="M155.265 356.532c-1.123-.385-1.484 1.14-.541 1.321 1.321.502 2.42 1.458 3.1 2.697.451.952 1.55.091.516-1.64-.819-1.027-1.874-1.843-3.075-2.378zm-5.035.968c3.977-6.232 14.055 1.64 8.873 8.356 7.806-5.74-5.56-18.524-8.873-8.356zm5.798 2.772c-1.813-1.911-4.428-2.354-5.855-1.009s-1.115 4.002.697 5.904 4.436 2.37 5.855 1.009 1.115-3.994-.697-5.904zm-.05 5.494c-1.189.877-3.189.155-4.657-1.189s-1.706-3.69-.623-4.748c1.221-1.173 3.386-.435 4.682 1.041 1.049 1.214 1.96 3.871.598 4.896z"/></g><path d="M150.698 359.829c-1.083 1.057-.96 3.28.623 4.747s3.468 2.067 4.657 1.189c1.353-1.025.451-3.681-.598-4.92-1.32-1.451-3.461-2.189-4.682-1.016zm4.28 5.354c-2.46.23-4.608-2.714-3.715-4.018 0 0 .673-.918.82-.074a4.66 4.66 0 0 0 1.148 2.095c.558.587 1.259 1.018 2.034 1.251.328.09.435.615-.287.746h0z" fill="#311d00"/><g fill="#fff"><path d="M152.06 361.091c-.123-.82-.82.074-.82.074-.894 1.304 1.287 4.248 3.714 4.018.722-.131.615-.656.263-.746a4.66 4.66 0 0 1-2.021-1.256 4.65 4.65 0 0 1-1.136-2.09h0zm-12.154 12.538l1.362-.976c-6.642-4.239-14.883-7.011-28.282-2.591l-.599.189c3.215-.648 7.667-1.394 10.447-1.206 3.542.263 8.749.771 13.678 3.895l-2.46 1.345a74.89 74.89 0 0 1-27.118 7.634c-5.477.394-4.42-2.804-.82-4.624 1.985-1.009 3.657-2.928 4.395-6.446-.598.312-.598.181-1.476.345h-.098c-1.197 8.61-18.04 7.716-16.17-3.994l-3.813-7.863c0 .114-.344-1.813-.156-1.862 0 0 4.1 6.675 5.814 8.791-2.271 7.995 9.413 11.332 12.546 5.313-10.3 1.919-10.66-3.354-10.537-5.117-.082-.254-.139-.541-.205-.82-1.796-1.828-7.634-9.577-14.276-21.746-.886 7.093 7.15 23.501 7.815 25.117l.689 1.697c-2.46 6.724 4.559 15.531 17.113 13.505 12.358-1.156 26.232-6.33 32.152-10.586z"/></g><g fill="#311d00"><path d="M313.189 352.08l.82 1.59 1.64 2.944a42.22 42.22 0 0 0 3.805-5.248l-4.239.443-2.026.271zm6.355-12.997l5.355-.533a63.8 63.8 0 0 0 2.058-13.202v-1.246l40.057 6.814-3.329-7.979-36.802-6.314-.049-1.164-.435-4.543-5.108.558c1.189 9.298.869 18.966-1.747 27.609zm-69.905-51.053l2.37 2.246.599.468c-2.37-12.185-2.46-25.018 3.682-36.515l-1.37-3.009a44.99 44.99 0 0 0-5.199 13.3c-1.623 7.503-1.361 15.621-.082 23.51zm13.129 46.904l6.133.975c0-.393-.041-.82-.065-1.172 6.748-4.871 11.963-12.866 14.76-20.32l-.468-1.033-.992-.057c-7.06-.394-14.76-1.444-22.665-4.847 2.001 7.577 4.043 14.908 5.166 21.755-1.394-5.879-4.608-13.858-7.56-22.862-1.091-.541-2.181-1.115-3.28-1.754 3.124 10.315 6.658 18.769 7.519 22.746.427 1.903.984 4.117 1.452 6.569z"/></g><path d="M317.142 278.911c-2.46-11.291.148-32.283 8.38-38.269-11.767 1.426-15.039 30.914-8.38 38.269z" fill="#fff"/><g fill="#311d00"><path d="M277.707 301.428L257.47 256.82c-4.65 11.751-3.969 24.141-1.64 36.318a43.31 43.31 0 0 0 21.877 8.29h0zm78.36-87.535c6.379 3.329 17.95-1.238 10.971-12.3l-15.03-27.134-5.814 2.698 10.504 23.419 1.181.132c1.726.233 3.427.62 5.084 1.156 4.42 1.279 5.199 11.234-3.223 10.397-1.361-.18-2.673-.328-3.764-.442-1.771-.325-3.558-.553-5.354-.681l-.459-.057c2.148 8.372 1.525 19.639-9.783 22.14 5.838-2.551.73-4.314.435-4.445-12.186-2.796-32.431.96-34.654-.574 13.006-1.254 13.99-7.741 12.932-14.44l-2.009.41c1.254 7.052-1.689 9.676-5.593 11.127a34.42 34.42 0 0 1-10.43 2.05l-3.879-.131c1.681-.566 5.002-.705 9.07-1.541 6.256-1.304 9.889-4.043 9.454-11.218l-2.402.492c.169 1.756-.142 3.525-.902 5.117-1.255 2.279-5.634 3.198-7.93 3.534l-3.362.467c-13.481 1.731-18.72 4.223-27.232 8.824 0 0-1.05.664-1.533 1.033-3.388 2.014-6.535 4.407-9.381 7.134l1.197 2.64a52.67 52.67 0 0 1 5.092-4.452 37.81 37.81 0 0 1 8.553-5.445c-4.848 3.066-9.273 6.755-13.161 10.971l19.836 43.772c-1.64-12.218 21.787-21.509 30.34-1.205a91.21 91.21 0 0 1 4.255 12.71l5.191-.525c-.547-2.28-1.186-4.557-1.919-6.831-1.481-6.6-2.196-13.35-2.132-20.114v-1.14c3.534 4.1 16.228 17.892 31.406 22.304l-3.772-9.225s-15.285-6.56-26.642-23.993c.156-.87.296-1.517.394-1.936 1.279-6.404 3.559-12.431 7.298-17.113.246-.312.484-.574.713-.82a10.66 10.66 0 0 1 1.222-1.46l24.075 56.457s4.018-.27 7.684-.934l-24.854-58.885c.393-.057.82-.09 1.238-.123l.566-.073c.352 0 .664-.05.82-.074 5.74-1.033 8.774-3.6 10.971-7.593 1.878-3.428 2.132-7.954 1.821-11.62.742-1.057 1.744-1.905 2.911-2.46h0zm-38.926 65.018c-6.658-7.38-3.386-36.843 8.381-38.269-8.233 5.986-10.808 26.978-8.381 38.269h0z"/></g><path d="M216.683 318.353c.233.59.507 1.162.82 1.714h0a6.1 6.1 0 0 0 2.157 2.173c6.51 3.87 10.102-1.058 10.135-1.099s2.993-3.911-1.337-8.2a8.55 8.55 0 0 0-2.974-1.648 8.56 8.56 0 0 0-3.381-.361 7.38 7.38 0 0 0-7.659-5.486h-.073c-4.322.295-5.33 2.632-5.822 3.977-.308.906-.421 1.867-.33 2.82s.382 1.875.854 2.707c-.016.115 2.083 4.256 7.61 3.403zm5.699-6.248c4.863-.148 8.659 4.715 6.216 8.282l-.886.147c-4.239.558-6.626-1.123-7.339-4.92a5.65 5.65 0 0 0 2.009-3.509h0zm-5.683-5.199c2.411.771 4.166 2.886 4.051 5.059h.271c-.197 1.583-1.862 3.731-5.256 3.215a10.48 10.48 0 0 1-.238-2.132 5.16 5.16 0 0 0 1.845.27 8.43 8.43 0 0 1 .065-.992 5.81 5.81 0 0 1-1.927-.566 11.23 11.23 0 0 1 1.189-4.854zm-5.625 1.049a4.48 4.48 0 0 1 1.654-1.02 4.47 4.47 0 0 1 1.93-.226c-.693 1.332-1.053 2.812-1.05 4.313-.336-.279-.599-.287-.935-.639v1.197c.213.377.55.492.976.82a10.13 10.13 0 0 0 .254 2.46c-.221-.074-.344-.254-.582-.369-3.37-1.919-2.247-6.536-2.247-6.536h0zm-1.254 1.485c-.566 7.019 5.838 8.044 9.438 6.715.779 5.683 5.74 5.831 8.118 5.453-.937.507-1.98.785-3.045.811s-2.12-.201-3.08-.662a6.75 6.75 0 0 1-2.443-1.989c-.646-.847-1.082-1.835-1.272-2.883-4.502 1.378-9.627-2.263-7.716-7.445z" fill="#fff"/><g fill="#311d00"><path d="M330.917 184.988c-1.427-.918-3.6-4.051-3.28-6.601 3.354.049 4.363 4.92 3.28 6.601zm3.469 9.102c-1.687-1.629-2.667-3.855-2.731-6.199 2.665.541 4.272 3.846 2.731 6.199zm-14.292-6.519s2.107 6.61 4.78 13.211c7.003-1.821 12.021 11.102-.328 12.037 1.206 5.158 12.817 3.001 8.323-8.667-.902-2.345-8.667-18.467-10.16-22.485-.943-2.566-.975-3.009-.926-3.903a2.74 2.74 0 0 1 .115-.943l-.205.099-2.518 1.303c-1.82 2.157.919 9.348.919 9.348zm-4.781-.557c1.976 5.978 5.1 14.612 5.1 14.612l2.526-.475-4.814-13.44s-1.976-5.182-.934-8.544l-2.296 1.09s-1.075 2.206.418 6.757zm17.458 28.241c9.364.656 11.57-3.51 11.57-3.51l-8.897-.049c-.164 1.828-2.673 3.559-2.673 3.559zm-108.618 47.478c1.403 0 2.903 1.787 2.903 1.787l3.502 3.854 13.021-21.369c2.165-3.395 6.035-8.2 5.74-7.946l-2.402-5.584c-.59-1.193-.872-2.515-.82-3.846-2.434 2.881-4.708 5.893-6.815 9.02l-15.129 24.084zm165.067 26.256a5.48 5.48 0 0 1 2.993 1.246s9.84-1.246 11.939-2.099c.008 0-11.177 1.115-14.932.853zm3.747 35.219s-6.789.098-16.195-.058l2.813 6.47 10.66-2.099s3.846-.148 2.722-4.313zm-26.084-18.368l-7.38 1.164 10.816 25.674s6.174-.893 7.437-1.451c-4.074-8.263-7.704-16.737-10.873-25.387zm16.441 36.49l-7.913 1.697s9.02 16.4 25.97 24.723l-.509-9.02c.008.017-10.816-7.281-17.548-17.4zm51.34 29.233s1.968 5.896-19.68 8.709c0 0 12.915-1.821 16.4-6.183 0 0 3.362-2.813-3.501-4.363-6.7-1.5-7.725-.697-14.186-3.509 0 0 .418 6.322.279 7.872 0 0 4.206 1.263 6.56 1.123 0 0 .155-1.96-5.33-3.649 0 0 23.591 2.247-1.263 7.585.076 2.686-.113 5.372-.566 8.02l16.851-4.51c4.567-1.263 13.292-5.33 4.436-11.095zM285.03 313.614l12.44 26.879c2.823.287 5.671.224 8.479-.188l-12.399-26.65a37.75 37.75 0 0 1-8.52-.041h0zm-36.448-85.264c-.35.562-.535 1.211-.535 1.874a3.54 3.54 0 0 0 .535 1.873c0 .041 17.097 37.425 31.684 69.331 2.783.48 5.608.667 8.43.558l-34.227-75.793a4.2 4.2 0 0 0-1.771-.36 5.26 5.26 0 0 0-2.363.76 5.27 5.27 0 0 0-1.753 1.757h0zM409.26 388.439c.621-.369 1.137-.891 1.496-1.518s.55-1.335.554-2.058c2.698-30.553-8.971-71.003-20.787-92.783a4.92 4.92 0 0 0-2.526-1.101c-.93-.12-1.874.029-2.722.429-.703.292-1.317.765-1.779 1.369l-.099.697v.32a15.95 15.95 0 0 1-3.362.771c-16.564 3.28-72.906 10.16-88.363 9.766a131.75 131.75 0 0 1-14.227-.656c-11.734-1.328-17.769-4.748-26.183-11.308-7.568-7.084-22.91-22.96-25.592-26.518-1.254-1.468-3.493-1.058-4.625-.156-.886.653-1.477 1.631-1.643 2.719a4.16 4.16 0 0 0 .758 3.086c6.109 6.692 21.279 21.148 21.426 21.32 13.703 14.883 27.495 17.967 39.91 18.664 8.725.606 19.95.082 17.974.205 22.854-1.378 61.738-6.815 83.025-10.66 1.591-.361 2.895-.607 2.895-.607h.738c1.017.467 1.976 3.559 2.033 3.788v-.115c2.214 5.576 6.634 20.049 6.683 20.197 0 0 1.222 4.436.738 4.92-.746.754-6.65 2.157-6.65 2.157-10.922 2.911-56.088 9.602-80.516 10.963-.172.041-6.56 1.033-20.418-1.041l-90.667-14.949-5.035 6.896c-.393 0 93.775 15.334 93.775 15.334a119.51 119.51 0 0 0 20.131 1.599l2.731-.074c3.411-.147 5.346-.442 5.396-.442 25.247-2.559 57.227-6.643 77.9-11.563a21.02 21.02 0 0 1 4.149-.426 5.99 5.99 0 0 1 1.73.443 5.55 5.55 0 0 1 1.132 2.599c3.69 13.317 4.469 33.333 4.51 34.276 0 0 .073 4.15-.624 5.74-.861.927-3.927 1.452-3.927 1.452-33.522 8.577-72.636 2.525-87.814-29.988-3.28.279-8.274.181-8.274.181a23.36 23.36 0 0 0 1.525 3.477c9.783 21.656 27.388 30.282 42.288 34.218 16.4 4.338 35.883 4.059 54.062-.615 2.944-.984 2.837-1.205 2.837-1.205a6.76 6.76 0 0 0 2.698.671 6.75 6.75 0 0 0 2.739-.474h0zm-206.311-94.628c-.697 1.221-2.288 3.862-5.568 8.47-1.435 2.017-1.943 3.854-1.509 5.461.648 2.378 3.206 3.567 3.231 3.576h.049l15.49 9.503 1.812 1.083 4.986 3.083c3.673 2.46 8.077.467 10.381-2.608 2.017-2.738 2.812-6.658-1.337-10.602 0 0-.721-.951-4.297-2.944-3.337-1.845-14.899-8.84-20.393-12.3.033.09-2.132-1.173-2.845-2.722zm5.559 15.686c.492-1.345 1.501-3.682 5.822-3.977h.074c1.716-.121 3.42.36 4.819 1.362a7.38 7.38 0 0 1 2.84 4.124c1.14-.107 2.289.016 3.381.361a8.56 8.56 0 0 1 2.974 1.648c4.329 4.256 1.361 8.118 1.336 8.2s-3.624 4.928-10.094 1.025c-.894-.542-1.633-1.304-2.148-2.214h0a13.54 13.54 0 0 1-.82-1.714c-5.527.82-7.626-3.28-7.651-3.329-.468-.826-.758-1.741-.849-2.686a6.8 6.8 0 0 1 .316-2.8h0zm25.969-4.813c-3.239-2.46-10.726-7.38-16.4-11.046l-1.337 1.296 15.867 10.586c3.698 2.501 5.142 5.674 4.559 8.856-.024 0 3.108-5.256-2.689-9.692zm-27.667-9.504c5.453 3.411 23.215 13.875 23.215 13.875s4.797 3.05 5.01 6.92c1.451-4.1-.992-7.183-3.469-8.962l-16.531-11.07c-3.091.82-9.627-2.583-9.389-6.847-1.632 1.394-1.952 4.1 1.164 6.084zm13.563 20.443c.713 3.788 3.1 5.469 7.339 4.92l.886-.148c2.46-3.567-1.353-8.429-6.216-8.282a5.65 5.65 0 0 1-2.009 3.51h0zm-2.812 1.263c.19 1.047.626 2.035 1.272 2.882a6.73 6.73 0 0 0 2.443 1.989 6.74 6.74 0 0 0 6.125-.148c-2.394.377-7.38.229-8.118-5.453-3.6 1.328-10.004.303-9.438-6.716-1.935 5.182 3.19 8.823 7.716 7.446zm192.445-28.028a158.85 158.85 0 0 1-16.088 3.501l2.78 6.118 5.256-.911c4.617-.869 9.225-1.951 11.529-2.673l.927-.197a3.28 3.28 0 0 0 2.042-1.181c.511-.633.768-1.434.721-2.246-.062-.812-.411-1.575-.983-2.155a3.44 3.44 0 0 0-2.141-1.01 33.85 33.85 0 0 0-4.043.754h0zm10.103 31.693c-3.657.82-14.596 2.952-14.596 2.952l.697 1.968c2.952-.279 15.727-3.518 15.727-3.518 2.46 0 2.518 1.591 2.518 1.591-4.92 1.836-17.491 4.46-17.491 4.46.558 2.378 1.763 7.02 1.763 7.02 14.9-2.665 18.122-4.305 18.122-4.305 4.346-1.829 2.665-6.929 2.665-6.929-1.681-5.904-9.405-3.239-9.405-3.239zm4.961-24.74c-2.714-10.209-8.61-8.946-8.61-8.946 3.239.992 6.002 6.429.098 9.66 2.657 6.901 4.8 13.988 6.413 21.205 10.857-.074 11.422 12.939 5.059 15.006 0 0 4.1 20.787 5.24 32.226.079 1.278.093 2.558.041 3.838 4.502.926 7.118 4.1 7.118 5.74 2.189-13.104-5.478-51.037-15.359-78.729zm-62.952-6.961l2.395 5.485s11.693-1.279 16.752-2.542c.059-.573.314-1.109.722-1.516s.943-.663 1.517-.722c-7.133.553-14.305.317-21.386-.705h0zm-161.097 26.346s-5.92-3.559-6.667-4.977l-11.791 18.04c-.289.355-.47.786-.521 1.241a2.38 2.38 0 0 0 .234 1.325c.445.769 1.073 1.415 1.829 1.881a5.39 5.39 0 0 0 2.5.793c.588.07 1.184-.022 1.722-.268a3.22 3.22 0 0 0 1.329-1.126l11.365-16.909zm53.792-91.586c.82.443.919.615 1.862 2.28.59 1.041 2.238 4.608 2.238 4.608 2.985-2.263 5.822-3.878 11.144-5.805 16.917-6.872 37.146-10.923 55.006-14.49l1.361-.27c2.911-.468 3.69-2.247 3.469-3.764-.243-.994-.854-1.859-1.709-2.42a4.04 4.04 0 0 0-2.9-.606c-22.312 3.6-48.117 10.267-60.557 15.474-3.457 1.343-6.777 3.015-9.914 4.993h0zm-46.264 64.723l-.057.065c-1.05 1.263.696 3.067 1.065 3.42 1.591 1.541 4.15 2.526 5.363 1.558l9.02-14.325a49.43 49.43 0 0 1-5.838-6.339l-9.528 15.58-.025.041zm137.243-86.953s1.812 4.223 1.812 7.167c3.526.336 10.406.992 13.038 1.566 2.903 0 3.411-1.927 3.493-2.771.148-1.575-.729-3.477-2.205-3.69h-.091-.09c-2.074-.738-12.054-1.894-15.957-2.272zm-128.42 111.971c-.626.023-1.251-.069-1.845-.27.007.717.086 1.431.238 2.132 3.395.516 5.059-1.64 5.256-3.215h-.27c.114-2.173-1.64-4.288-4.051-5.059-.766 1.528-1.173 3.211-1.189 4.92a5.82 5.82 0 0 0 1.927.566 8.44 8.44 0 0 0-.066.926h0zm-4.051 1.116c.238.114.361.295.582.369a10.13 10.13 0 0 1-.254-2.46c-.426-.296-.763-.41-.976-.82v-1.173c.336.353.599.361.935.64-.003-1.502.357-2.982 1.05-4.314a4.5 4.5 0 0 0-1.93.226c-.619.215-1.184.564-1.654 1.021 0 0-1.123 4.616 2.247 6.511zm141.065-114.292l-9.84-22.304-2.239.902c-.516-1.009-1.476-1.394-3.067-1.55C257.38 30.951 5.181 112.025 65.861 305.61A215.07 215.07 0 0 0 80.4 340.657a19.54 19.54 0 0 0 0 9.389c1.64 6.199 3.018 10.004 8.011 20.984-2.042 7.446 4.92 18.384 21.804 15.137 20.066-3.108 30.554-10.373 32.989-12.226.672.467 1.345.959 2.017 1.451 35.58 27.757 93.775 29.971 115.276-2.886 8.561 1.746 19.253.311 19.253.311 11.136-.738 20.107-3.714 27.11-8.339-.82-1.386-1.681-2.796-2.46-4.272-9.02 6.084-21.944 9.323-40.131 7.847l-1.156-.156c3.056-6.254 4.893-13.033 5.412-19.975l-4.166-.688c.264 5.385-.495 10.772-2.239 15.875-1.076 3.081-2.581 5.996-4.469 8.659h.041c-4.288 6.312-10.105 11.435-16.908 14.891-26.929 14.047-68.749 5.838-93.045-12.251-13.94-10.406-22.091-10.094-35.424-6.068-14.76 4.478-14.178-4.1-14.178-4.1-12.374-17.548-23.731-36.334-33.456-71.758-23.313-93.34 29.118-158.801 96.276-180.342 69.364-11.808 122.77 27.174 145.05 64.886a4.63 4.63 0 0 0-1.64 1.476c-2.214 3.461.607 9.233.82 9.75l5.346 15.408 2.46-.468-6.035-16.752c-2.394-5.658.287-7.757.287-7.757-.713 2.099-.131 4.518.271 5.789.779 2.46 3.419 9.733 5.608 15.317a83.05 83.05 0 0 1 1.165 3.157c.648-.131 1.295-.27 1.968-.377-1.878-5.641-4.453-12.234-5.232-14.432-.672-1.828-.984-2.525-1.837-5.477-1.139-4.002.427-4.1 2.124-4.223.968-.074 3.854 0 4.609 0 1.746-.943 5.485-2.797 7.716-3.92-26.896-45.469-80.811-75.866-151.495-65.534 55.76-13.555 119.08 2.509 157.194 56.809 2.009 3.379 3.731 5.24 6.765 11.308h-1.361c-2.124-3.001-4.273-3.961-6.888-4.01-.14 0-5.216 0-4.568 5.15.234 1.519.669 3 1.296 4.403h0l3.78 7.962 1.009 2.124 3.64 7.38s2.706 5.387 2.862 8.249l9.799.181s.156-2.993-1.943-8.34c-1.525-3.845-6.085-17.941-7.585-20.754a1.18 1.18 0 0 0-.066-.139c1.176-.001 2.35.098 3.51.295 1.927 4.92 4.723 13.309 6.871 19.926l.82.041 1.698.139s0-.065-.041-.114c.869.041 4.239.336 5.453.582zM82.146 343.896c6.642 12.194 12.472 19.934 14.268 21.763a17.78 17.78 0 0 0 .197.82c-.131 1.771.246 7.044 10.561 5.125-3.157 6.011-14.834 2.681-12.57-5.322-1.681-2.099-5.797-8.782-5.797-8.782-.197.041.18 1.993.156 1.853l3.805 7.872c-1.845 11.718 14.965 12.595 16.195 4.01.049 0 .065 0 .09-.049.869-.156.894 0 1.476-.336-.738 3.509-2.394 5.436-4.387 6.445-3.616 1.812-4.674 5.026.82 4.625s15.432-1.968 27.126-7.651l2.46-1.337c-4.92-3.116-10.127-3.624-13.686-3.895-2.772-.18-7.224.558-10.447 1.206l.607-.173c13.399-4.428 21.648-1.64 28.29 2.592a55.87 55.87 0 0 0-1.361.959c-5.929 4.272-19.82 9.438-32.161 10.603-12.554 2.033-19.549-6.773-17.113-13.489l-.697-1.698c-.697-1.631-8.733-18.023-7.831-25.141zm255.463-152.11c.893 3.895-1.927 5.994-4.724 2.772a10.67 10.67 0 0 1-2.205-4.182l-.091-.246a11.35 11.35 0 0 1-.246-3.715c-1.283-1.144-2.319-2.54-3.042-4.1-1.64-4.92 0-6.019.738-6.281 2.706-.672 6.486 3.354 6.216 9.389 1.5 1.517 2.591 2.919 3.354 6.363h0z"/></g><path d="M337.609 191.786c-.763-3.444-1.854-4.854-3.354-6.355.27-6.035-3.51-10.061-6.216-9.389-.738.263-2.394 1.386-.738 6.282.723 1.56 1.759 2.955 3.043 4.1-.124 1.243-.041 2.498.245 3.714l.091.246c.413 1.542 1.166 2.971 2.205 4.182 2.797 3.215 5.617 1.115 4.724-2.78zm-6.692-6.797c-1.426-.919-3.599-4.051-3.28-6.601 3.354.049 4.363 4.92 3.28 6.601h0zm3.469 9.102a8.96 8.96 0 0 1-2.731-6.2c2.665.542 4.273 3.846 2.731 6.2h0z" fill="#fff"/></g><defs><clipPath id="A"><path fill="#fff" transform="translate(45 91)" d="M0 0h410v316.938H0z"/></clipPath></defs></svg>