<svg xmlns="http://www.w3.org/2000/svg" width="500" height="500" xmlns:v="https://vecta.io/nano"><path fill="#fffffe" d="M489.054 196.69h-181.66L249.527 23.638 191.655 196.69H10l148.834 106.554-57.135 173.151 147.828-105.597 147.839 105.394-57.152-172.943 148.84-106.559"/><path fill="#024" d="M249.527 44.232L196.301 203.15H30.097l136.353 97.609-52.44 158.913 135.545-96.802 135.5 96.802-52.462-158.913 136.359-97.609H302.747l-53.22-158.918"/><path fill="#fffffe" d="M249.527 88.031l-42.8 128.72H72.1l110.449 79.066-42.476 128.714 109.784-78.401 109.118 78.401-42.476-128.709 110.455-79.071H292.322l-42.795-128.72"/><path fill="#024" d="M249.527 125.887l-33.64 101.688H109.545l87.246 62.464-33.563 101.688 86.739-61.941 85.854 61.941-33.568-101.683 87.25-62.469H283.162l-33.635-101.688"/></svg>