<svg xmlns="http://www.w3.org/2000/svg" width="500" height="500" xmlns:v="https://vecta.io/nano"><defs><linearGradient id="A" x1="49.997%" x2="49.997%" y1="-.001%" y2="100%"><stop offset="21.7%" stop-color="#ffd100"/><stop offset="29.6%" stop-color="#ffd724"/><stop offset="47.4%" stop-color="#ffe87f"/><stop offset="70.7%" stop-color="#fff"/></linearGradient><linearGradient id="B" x1="0%" x2="100%" y1="50%" y2="50%"><stop offset="0%" stop-color="#ffa300"/><stop offset="13.4%" stop-color="#ffa800"/><stop offset="28.9%" stop-color="#ffb600"/><stop offset="45.3%" stop-color="#ffcd00"/><stop offset="47.8%" stop-color="#ffd100"/></linearGradient></defs><g transform="translate(20 84.996)" fill-rule="nonzero"><path fill="#003594" d="M403.853 56.08c-62.97-62.99-161.07-74.213-236.639-27.073h0c-20.834 13.821-38.876 31.444-53.184 51.946-.05.06-.102.119-.154.179H74.414L0 249.501h96.542a153.91 153.91 0 0 0 60.938 61.815 152.16 152.16 0 0 0 156.531-5.891c5.448-3.567 7.925-10.275 6.103-16.527s-7.516-10.578-14.028-10.659a15.07 15.07 0 0 0-4.347.646 102.79 102.79 0 0 1-29.664 4.343c-28.91.069-56.475-12.201-75.772-33.727h90.153l15.483-21.573 60.094.006-2.833 6.926-6.453 14.647H451.1l2.094-7.696A191.46 191.46 0 0 0 403.853 56.08zm39.27 182.989h-74.374c3.082-6.989 5.628-14.202 7.615-21.577h-79.862L281.1 239.069h-71.59L316.544 89.126l-.012-.005a115.83 115.83 0 0 0-44.453-8.604c-1.945 0-3.878.05-5.796.149-58.066 2.925-104.373 49.542-104.373 106.422a103.94 103.94 0 0 0 .589 11.062h63.228l-18.828 26.492c-5.941 7.989-13.816 14.421-25.822 14.421h-5.154c18.877 32.552 54.907 54.594 96.161 54.594a113.18 113.18 0 0 0 32.674-4.785c.431-.133.88-.202 1.332-.205a4.37 4.37 0 0 1 2.213 8.019c-34.214 22.336-76.405 28.817-115.745 17.779s-72.002-38.52-89.603-75.395H16.022l65.19-147.495h37.667a141.63 141.63 0 0 1 108.909-55.208l3.083-.033c60.286 0 110.85 36.073 131.322 89.138l-37.066 51.931h56.437A151.5 151.5 0 0 0 172.741 37.859C235.937-1.532 316.809 1.8 376.549 46.257s86.157 120.966 66.573 192.812zm-209.781-51.356h-60.985c0-.205-.015-.415-.015-.624 0-51.164 41.492-93.334 94.471-96.002 1.764-.09 3.535-.135 5.263-.135a108.08 108.08 0 0 1 27.772 3.598l-66.505 93.163zm132.233-48.864c2.656 9.17 4.369 18.586 5.111 28.104h-25.163l20.052-28.104z"/><path fill="url(#A)" d="M172.741 37.859c57.15-23.362 122.761-9.706 165.842 34.52s55.015 110.171 30.164 166.69h74.374c19.603-71.85-6.809-148.372-66.556-192.834S235.935-1.552 172.741 37.859"/><path fill="#d7d2cb" d="M362.175 125.491l-14.316 20.061c-13.725-14.111-32.58-22.063-52.265-22.042a72.06 72.06 0 0 0-3.658.092l24.607-34.477a104.62 104.62 0 0 1 45.632 36.366zm14.188 92.001a151.47 151.47 0 0 0 5.199-39.457v-.642h-15.477a73.17 73.17 0 0 1-.512 40.098l10.79.001z"/><path fill="#ffd100" d="M308.296 296.693c-43.848 28.617-99.902 30.727-145.776 5.486h0c-11.321-14.27-19.679-30.657-24.582-48.2 15.842-.737 38.785.632 55.744 7.921 20.958 20.456 49.112 31.863 78.398 31.765a113.18 113.18 0 0 0 32.674-4.785 4.63 4.63 0 0 1 1.332-.205 4.37 4.37 0 0 1 2.211 8.019zm-145.805-98.535a103.67 103.67 0 0 1-.59-11.062c0-56.885 46.311-103.502 104.378-106.422-67.32 2.739-122.452 52.915-131.861 117.49l28.072-.006z"/><path fill="#ffa300" d="M175.914 239.069h-41.233a134.56 134.56 0 0 0 3.252 14.912h0c15.842-.737 38.785.632 55.744 7.921-6.922-6.777-12.897-14.457-17.763-22.833z"/><path fill="#ff8200" d="M102.953 239.069c5.141 10.747 11.616 20.804 19.272 29.932 3.999-6.159 9.377-11.302 15.709-15.02a134.56 134.56 0 0 1-3.252-14.912h-31.729z"/><path fill="url(#B)" d="M316.531 89.121a115.83 115.83 0 0 0-44.453-8.604l-5.796.149c-67.319 2.739-122.451 52.915-131.859 117.49H96.091l47.215-106.582h-24.428a141.63 141.63 0 0 1 108.909-55.208l3.083-.033c60.286 0 110.851 36.073 131.323 89.138l-.016.024c-11.456-16.209-27.287-28.825-45.645-36.374zM137.933 253.978h0c-6.332 3.718-11.711 8.861-15.709 15.02 11.272 13.449 24.933 24.698 40.294 33.18a136.82 136.82 0 0 1-24.582-48.2h-.002z"/><path fill="#fff" d="M368.635 196.547a73.16 73.16 0 0 1-3.061 20.945h-69.074L281.1 239.069h-71.59l82.426-115.468a77.4 77.4 0 0 1 3.658-.092c19.685-.021 38.54 7.931 52.265 22.042l-22.734 31.847h40.959c1.694 6.242 2.551 12.682 2.551 19.15h0zM81.211 91.574l-65.19 147.495h165.047c12.005 0 19.885-6.427 25.822-14.422l18.828-26.491H96.091l47.215-106.583H81.211z"/></g></svg>