<svg xmlns="http://www.w3.org/2000/svg" width="500" height="500" fill-rule="evenodd" xmlns:v="https://vecta.io/nano"><path fill="#fff" d="M488.716 355.524c-26.598-35.822-73.022-79.578-128.33-104.143l11.296 26.026c-47.03-23.686-99.308-40.689-158.57-40.42l12.63 13.674C116.273 254.95 52.052 309.233 10 355.524c.984-62.679 45.894-119.283 105.061-153.839l-12.178-11.304c44.034-30.477 105.793-39.028 157.919-33.008L253.39 144c172.675 12.832 245.815 141.7 235.326 211.524"/><path fill="#0080c6" d="M212.304 245.369l-13.267-14.365c50.278-1.672 101.107 5.898 160.235 33.69l-10.893-25.1c44.515 17.246 93.837 49.439 135.194 99.372-3.642-75.608-79.999-173.58-218.881-187.59l7.722 13.931c-56.133-9.536-119.203.388-159.341 25.981l12.552 11.65C65.209 235.34 25.521 286.882 17.002 338.966c49.866-52.084 114.698-88.058 195.303-93.598"/><path fill="#ffc20e" d="M461.901 298.375c-23.534-63.346-94.317-117.962-173.776-131.036l9.333 16.633c-47.858-14.804-117.404-13.908-163.12 9.947l13.113 12.172C105.55 224.047 61.338 262.5 43.838 297.833c28.699-25.888 91.139-55.852 142.362-62.219l-12.728-13.782c49.229-9.758 114.841-.1 161.617 18.893l-9.074-20.909c34.45 7.062 98.472 37.843 135.886 78.559"/></svg>