<svg xmlns="http://www.w3.org/2000/svg" width="500" height="500" fill-rule="evenodd" xmlns:v="https://vecta.io/nano"><path fill="#fff" d="M289.196 108.913l-23.361 24.485c38.267-15.9 121.712-43.198 121.712-43.198l-26.736 26.154c72.977-21.607 128.433-31.845 128.433-31.845s-16.07 37.398-40.077 74.848l34.957-4.034s-27.298 45.219-58.819 77.811l17.642 4.389s-27.488 39.613-63.766 71.946c-52.17 46.492-79.015 39.35-79.015 39.35-38.728 28.049-69.768 13.835-69.768 13.835s13.41-33.845-.445-37.438c-12.489-3.245-31.489 6.519-33.861 10.436-2.465 8.54-12.849 30.228-23.575 43.355-20.568 25.164-43.375 35.45-43.375 35.45s-17.965-15.33-18.083-41.427c0 0-12.339 13.071-32.427 17.343-14.061 2.991-33.251.562-52.91-15.852C12.522 363.504 10 326.478 10 326.478s12.404-23.696 36.327-44.463c-5.295-4.543-8.54-10.258-9.559-13.786 63.588-27.754 63.632-54.248 114.186-86.456 49.806-31.731 81.105-46.322 138.242-72.86"/><path fill="#004c54" d="M258.221 131.389l-19.978 20.94c39.455-17.464 122.775-45.829 122.775-45.829l-24.181 23.656c85.429-26.449 139.612-35.409 139.612-35.409s-17.707 39.463-41.27 72.985l35.207-3.86s-23.798 39.871-58.968 73.644c3.908.574 19.869 4.215 19.869 4.215s-21.211 31.473-58.075 63.754c-47.057 41.201-67.933 36.323-67.933 36.323s.453-1.609.408-4.11c-.032-1.382-.327-2.635-.34-2.736-36.226 34.092-66.405 22.589-66.405 22.589s13.398-32.439-7.154-38.986c-15.92-5.068-40.308 7.962-42.252 14.942-2.114 7.59-12.226 28.656-22.254 40.999-17.395 21.417-36.65 31.19-36.65 31.19s-17.505-13.467-11.434-52.882c1.326-8.589-.376-11.943-1.314-13.386-2.874-4.397-25.269.4-30.733 12.893-3.856 8.823 18.398 16.28 18.398 16.28s-10.27 11.329-28.219 14.999c-11.288 2.308-28.769 1.572-47.122-14.32-10.86-9.401-13.111-41.213-13.111-41.213s13.414-24.574 39.544-45.796c-5.157-3.375-9.074-9.094-10.064-11.341 52.651-22.678 59.87-54.745 119.307-90.578 27.702-16.7 56.879-33.134 92.337-48.961"/><path fill="#000" d="M457.242 108.78s-11.147 32.77-34.827 66.037l29.723-1.847s-16.579 33.348-54.013 69.065c2.11.437 10.759 2.001 15.577 3.997-18.087 29.335-72.144 86.937-102.356 89.305-.34-5.052-2.3-9.361-4.668-12.331-11.337 20.722-45.954 33.441-60.326 30.115 17.452-63.932-56.588-39.572-62.266-22.023-14.74 45.57-52.158 67.011-52.158 67.011s-11.959-13.625-6.83-44.309c3.783-22.621-10.529-21.918-10.529-21.918-5.707-.263-27.362 2.348-34.193 17.46-5.509 12.17 13.774 20.714 13.774 20.714s-27.843 22.229-60.056-5.323c-7.902-6.758-10.84-35.292-10.84-35.292 15.492-25.681 35.91-42.013 44.37-48.084-8.969-3.439-11.761-8.096-11.761-8.096 43.25-19.833 60.213-52.797 97.033-77.293 40.575-26.994 71.635-40.251 71.635-40.251l-11.721 14.752s9.813-4.195 14.093-6.293c38.639-18.964 104.106-39.629 104.106-39.629l-20.415 19.776s33.845-11.592 76.489-20.702l70.16-14.841zM146.423 257.987l-2.243 2.801c2.425.028 4.567.978 5.679 2.833 1.968 3.282.012 8.059-4.373 10.678s-9.534 2.077-11.507-1.208c-.303-.501-.485-1.047-.606-1.609a28.62 28.62 0 0 1-2.583 1.633c.186.639.449 1.265.796 1.847 2.789 4.636 9.898 5.505 15.888 1.928 5.99-3.569 8.585-10.221 5.8-14.865-1.411-2.344-3.933-3.71-6.851-4.038z"/><path fill="#fff" d="M305.889 139.978s-9.854 7.053-16.664 11.571c-9.239 6.131-17.42 12.056-17.42 12.056l1.027-.445c77.568-24.311 141.641-16.708 141.641-16.708-41.933 4.042-75.842 12.012-93.836 20.233 0 0 24.844-4.268 37.475-4.268 12.355 0 22.46 1.2 22.46 1.2-79.035 12.331-121.546 35.175-131.909 41.326-4.312 1.835-6.572 2.979-6.572 2.979s12.889-4.038 29.226-8.087c28.749-4.409 70.819-2.037 111.409 10.011 0 0-28.142-1.491-40.441-1.217-36.727.816-74.577 15.585-74.577 15.585 23.907-6.026 50.113-1.588 50.113-1.588-10.189.586-35.244 7.279-47.817 12.457-18.115 7.461-36.424 18.087-49.765 27.9-5.396 3.201-8.281 5.311-8.281 5.311l.015-.008c.354-.189 7.139-3.789 18.355-8.116 19.643-6.608 52.91-12.505 89.863-.093-56.952-11.345-101.944 15.33-101.944 15.33 32.616-10.658 53.302-.61 53.302-.61-39.536-4.806-69.016 16.001-79.165 28.979 5.719-11.547 14.158-18.992 14.158-18.992-2.033 1.002-4.042 2.154-6.03 3.427-8.144 4.688-41.496 21.627-70.459 3.633a64.31 64.31 0 0 1-4.62-3.136c9.631 5.044 25.523 5.472 32.119-1.019-23.094 5.957-27.197-4.587-27.69-11.147-1.491.283-3.888.101-5.679-.315 0 0 3.779-1.605 5.654-2.575.323-.166.635-.356.954-.538.186.639.449 1.265.796 1.847 2.789 4.636 9.898 5.505 15.888 1.928 5.99-3.569 8.585-10.221 5.8-14.865-1.411-2.344-3.933-3.71-6.851-4.038 2.077-2.413 6.075-7.748 12.246-12.186-4.543 5.448-5.994 9.134-6.168 9.599 2.785.437 5.226 1.629 6.402 3.84 2.316 4.333.74 7.736-.101 9.478-1.556 3.262-4.426 6.483-8.29 8.92-5.23 3.302-10.961 4.337-15.177 3.148 0 0 .756 1.378 1.98 2.191 2.037 1.362 8.055 3.347 16.757-.586 3.225-1.459 5.646-3.116 7.493-4.797 6.544-4.911 7.255-11.191 9.591-16.704 5.509-13.018 16.886-24.291 30.143-28.971-12.602 1.536-28.013 12.897-27.564 7.825.21-2.36 6.968-24.852 48.363-42.062l2.28-.82s-20.099 3.112-50.388 21.17c-11.911 7.105-22.613 16.927-28.029 24.388.238-4.903 2.886-9.656 4.494-13.402-11.272 7.259-8.463 17.363-16.955 27.213-3.718 3.965-7.635 7.76-11.79 10.46-24.004 15.633-47.7 5.905-47.7 5.905 32.168-17.387 31.206-21.304 52.401-43.78 23.761-25.188 38.36-38.162 78.348-57.772-2.615 3.371-13.422 12.853-15.755 15.548 0 0 8.023-4.292 23.216-11.503 53.884-25.584 93.666-35.11 93.666-35.11zM138.186 267.432c-.113 1.855.311 4.211 2.595 5.937 0 0-2.603.214-4.296-1.035-.962-.711-1.374-1.552-1.544-2.037 1.14-.905 2.219-1.871 3.245-2.866z"/><path fill="#a5acaf" d="M109.155 284.367s29.298 37.014 75.984 18.616c-2.146 3.791-3.092 7.978-4.49 12.917-10.783 50.157-47.118 71.89-47.118 71.89-6.616-15.019-2.914-29.533-1.786-34.969 2.562-12.384-3.383-21.603-3.383-21.603 23.903 1.136.469 30.911 9.348 43.877 16.062-9.352 25.75-42.252 28.142-54.001.166-.441-2.267-2.17-4.236-2.894-23.078-7.421-61.773-1.067-75.762 7.396-43.812 26.514-2.825 44.701-2.825 44.701s-26.978 9.017-42.422-15.375c-3.787-6.467-4.741-18.26-5.569-27.475 16.062-27.188 41.31-37.996 48.323-42.83 6.083 1.649 17.104 2.409 25.794-.251zm92.474 24.602s20.277-19.78 65.33-11.822c17.278 3.051 26.833 12.17 26.833 12.17-7.703 13.398-22.937 19.95-22.937 19.95s.97-21.32-32.871-26.76c-22.19-3.568-35.538 5.867-36.319 6.436zm28.696-48.799c29.573-11.422 89.948-27.928 144.656-.505-3.254 6.98-11.487 17.351-24.622 30.28-12.509 12.307-20.819 15.852-22.985 17.028l-.525.275c-4.466-16.898-41.634-32.984-95.117-19.715-22.086 5.476-31.934 12.29-40.922 20.659l-.598.56c.655-1.73 1.39-3.387 2.17-4.975 10.149-12.978 39.629-33.785 79.165-28.979 0 0-20.685-10.048-53.302.61 0 0 44.992-26.675 101.944-15.33-36.953-12.412-70.22-6.515-89.863.093zM98.137 291.848l-10.165 5.359c-3.435 5.149 3.795 4.123 7.142 3.128l14.926-4.357c-6.802-.651-9.401-2.081-11.903-4.131zM222.1 197.681c-41.395 17.21-48.153 39.702-48.363 42.062-.449 5.072 14.962-6.289 27.564-7.825-13.257 4.68-24.634 15.953-30.143 28.971-2.336 5.513-3.047 11.794-9.591 16.704 5.516-5.016 5.724-10.196 5.731-10.678v-.036s-3.043 1.835-5.642 2.118c-.857.093-1.875-.053-2.853-.279 1.322-2.587 1.297-4.426 1.322-4.931 4.021-9.175 14.061-17.674 14.061-17.674s-7.425 4.418-8.536.141c-2.95-11.385 16.995-33.873 54.931-48.027a146.16 146.16 0 0 1 1.52-.546zm80.191-4.252c47.373-7.287 112.8-.263 112.8-.263s-3.027 9.623-17.25 25.22c-13.41 14.716-18.446 18.592-18.446 18.592-77.071-16.421-137.802 13.342-159.158 26.004 13.342-9.813 31.651-20.439 49.765-27.9 12.574-5.177 37.628-11.87 47.817-12.457 0 0-26.206-4.438-50.113 1.588 0 0 37.85-14.768 74.577-15.585 12.299-.275 40.441 1.217 40.441 1.217-40.591-12.048-82.661-14.421-111.409-10.011 9.765-2.413 20.758-4.838 30.976-6.406zm121.449-61.757s-8.043 24.978-28.526 44.766c-14.368 1.431-50.048 2.942-80.757 9.025-32.556 6.451-55.294 15.031-65.795 19.481 10.363-6.151 52.873-28.995 131.909-41.326 0 0-10.104-1.2-22.46-1.2-12.63 0-37.475 4.268-37.475 4.268 17.994-8.221 51.903-16.191 93.836-20.233 0 0-64.073-7.602-141.641 16.708 5.428-2.3 32.641-13.281 74.747-21.098 40.49-7.514 76.162-10.391 76.162-10.391z"/></svg>