<svg xmlns="http://www.w3.org/2000/svg" width="500" height="500" fill-rule="evenodd" xmlns:v="https://vecta.io/nano"><path fill="#b1babf" d="M366.436 338.882l-26.57 39.257c8.733 7.22 8.211 16.315 8.211 18.041-.168 9.671-5.317 16.89-10.033 21.111-5.866 4.999-13.882 7.423-22.341 7.485-.248 0-6.3-.186-8.379-.664-.894 1.309-2.619 2.902-5.424 4.043a11.7 11.7 0 0 1-1.292 2.61c-2.309 3.468-6.14 5.397-10.042 5.397 0 0-3.955-.115-6.689-1.999-3.504-2.31-5.433-6.15-5.433-10.061v-.106a11.92 11.92 0 0 1 1.363-5.477c-.407-.964-1.831-6.724-1.831-6.724l3.725-3.283c.301-.177 1.221-1.566 2.256-5.114 1.097-3.459 2.407-8.6 5.149-14.59 3.495-7.609 8.343-15.484 11.883-20.934-.345-1.743-2.177-2.548-3.495-2.867-1.478-.398-3.3-1.256-4.75-2.946-1.523-1.77-2.69-4.265-2.036-7.485.646-3.176 2.637-5.468 4.964-6.538v-.009c2.637-1.371 5.893-.717 5.893-.717 7.759.717 13.493 7.919 13.493 7.919 7.724-10.777 25.694-37.506 26.074-38.09-23.553 4.503-47.884 5.114-68.092 1.761-36.745-6.096-65.013-25.658-83.275-34.577-18.262-8.91-53.051-18.041-88.937-8.91-35.878 9.131-59.572 42.186-59.572 42.186 10.715-75.489 57.475-88.212 61.961-89.486 6.813-6.379 15.749-25.844-5.415-38.974-7.229-4.486-13.298-10.166-13.298-10.166 4.433.522 14.829-.849 20.598-3.132 6.928-2.734 13.298-3.645 13.298-3.645-5.468-5.211-13.82-7.821-13.82-7.821 8.343-.522 21.385-3.389 29.463-7.043 8.078-3.645 12.511-10.166 11.201-13.033-1.301-2.876-8.6-1.301-8.6-1.301 2.61-3.911 8.865-5.477 8.865-5.477-17.987-1.044-31.091 8.75-31.091 8.75 2-4.291 8.573-12.006 8.573-12.006l-9.839 3.114c28.162-21.748 59.598-40.868 103.642-41.151 44.035-.292 86.938 19.447 115.525 28.596 28.605 9.149 43.779 13.767 74.666 9.202 14.785-2.194 27.73-8.255 37.214-13.935 0 0 6.636-16.873 7.141-41.098 0 0 7.953 14.263 7.989 36.47.08 76.214-36.851 131.876-48.654 152.138-11.281 19.933-26.11 43.804-44.239 71.276zm81.213-279.88s1.001 18.324-2.46 35.099c-3.344 16.209-5.185 22.385-5.185 22.385-7.078 4.15-18.536 9.255-35.285 12.042-31.259 5.211-59.625-3.185-90.592-15.342-30.976-12.157-72.419-25.251-110.871-20.836-37.284 4.282-63.96 19.385-78.143 29.233-14.183 9.839-16.793 12.44-28.95 15.917 0 0 9.556 3.76 14.475 3.76 0 0-2.318 9.564-1.451 12.741 0 0 20.261-9.264 22.579-4.919s-7.237 7.246-13.891 8.972c-6.653 1.743-24.03 1.442-24.03 1.442s8.149 6.308 11.024 10.688c0 0-15.36 6.689-32.445 4.371 0 0-.566 6.326 13.475 16.687-2.991 1.071-6.777 2.805-9.122 5.309 0 0 14.714-3.035 23.96 7.264 2.433 3.052 3.229 5.786 2.955 9.237-.504 6.255-2.902 8.644-8.795 12.537-3.371 1.371-6.954 3.088-10.414 5.202-16.271 9.998-28.171 25.216-36.523 42.602-3.619 7.529-6.512 16.28-8.556 24.216-2.044 7.981-2.796 15.068-3.274 19.492-.478 4.415-1.133 18.333-1.133 18.333l10.723-15.13c3.406-4.884 24.995-32.029 56.44-39.894 10.06-2.557 20.076-3.628 29.649-3.628 23.013-.018 43.566 6.229 55.732 12.183 17.66 8.547 46.672 28.72 84.708 35.028 8.955 1.478 18.607 2.212 28.614 2.212 9.6 0 19.536-.699 29.463-2.053l-16.103 23.438c-5.185-4.937-12.219-5.45-12.219-5.45-8.529-.805-12.802 4.388-12.802 4.388-1.726 1.867-3.018 4.291-3.522 7.149-.602 2.645.115 5.725.611 7.291 1.627 5.167 6.042 7.521 7.759 8.273-12.466 16.607-16.085 35.728-16.085 35.736l-5.689 5.017 2.053 8.317c-3.167 10.201 1.805 17.855 8.255 21.022 6.547 3.221 12.661 1.354 12.661 1.354a17.25 17.25 0 0 0 9.706-7.06 16.3 16.3 0 0 0 .964-1.637 18.02 18.02 0 0 0 3.442-2.389c1.796.203 6.397.345 6.397.345 9.432-.08 18.651-2.752 25.685-8.724 5.539-4.955 11.635-13.404 11.847-24.951 0-2.168.398-10.909-6.822-18.527 45.558-66.889 75.135-109.951 94.016-153.765 50.025-116.135 7.352-164.559 7.167-164.975h0z"/><path fill="#000" d="M297.486 398.888c-.009.018-.018.044-.027.062-.009.009-.009.018-.009.027l.027-.053c0-.018.009-.027.009-.035zm90.99-104.704c-20.049 9.343-66.313 24.836-112.384 16.236-16.032-2.991-37.134-7.998-65.04-24.915-18.306-11.086-38.072-21.686-84.151-21.482-38.169.186-62.686 17.483-70.49 23.915 20.713-67.579 81.939-57.696 81.939-57.696-11.175-5.362-24.588-3.309-24.588-3.309 19.182-30.18-11.723-44.309-11.723-44.309 2.601 0 14.333-3.389 20.323-5.477 5.999-2.079 17.005-3.521 17.005-3.521-3.84-3.53-15.705-6.379-15.705-6.379 11.21 0 21.358-5.433 28.419-12.785 2.46-2.557 9.193-15.36 1.557-20.323-7.025-4.565-20.96.504-20.969.513.018-.018 41.717-44.947 127.77-25.747 40.823 9.113 86.841 33.02 129.327 33.276 14.28.088 45.787-4.548 64.588-23.473-.991 35.957-7.689 86.319-65.88 175.477zM334.31 373.3c-.053-.044-.133-.097-.177-.133-1.088-.991-2.494-2.185-4.052-3.486 2.539-3.619 31.631-46.875 40.16-60.288 2.983-1.053 5.884-2.203 8.75-3.406-5.768 9.122-37.24 56.546-44.681 67.314zm-1.522 37.868c-3.946 3.442-10.653 5.636-17.66 5.503-6.247-.124-10.635-1.133-14.608-3.291a.54.54 0 0 0-.035.133c-.311.265-.939 1.708-5.53 2.389-3.08.504-4.866-.115-5.053-.177 5.415 5.477 10.316 2.026 10.316 2.026.231.956.566 1.637.566 1.637s-1.627 2.39-6.583 1.566c-.602-.097-1.115-.265-1.619-.451.097.053.186.088.283.15 1.902 1.248 2.415 3.805 1.169 5.698-1.266 1.902-3.814 2.415-5.716 1.168a4.12 4.12 0 0 1-1.16-5.707c1.026-1.557 2.902-2.168 4.592-1.663-3.716-1.787-4.672-5.521-4.672-5.521 4.751-4.212 4.601-11.838 9.449-22.438.221-.487.469-.982.708-1.478 0 .018-.009.035-.018.053-1.053 2.637-2.062 7.167-1.646 10.467a15.08 15.08 0 0 0 .398 2.008v.009c.071.292 1.699 6.884 6.149 5.813l-.699 1.566c1.947 1.212 6.406 3.327 13.997 3.424 10.662.142 16.492-6.874 18.094-12.095 1.257-4.061-.69-8.573-4.707-12.528 1.177-1.363 1.893-3.264 1.106-5.884.363 1.212-1.911 3.371-4.309 3.159a3.39 3.39 0 0 1-.655-.115c-3.619-1.009-7.742-5.415-11.237-8.025-3.477-2.61-4.495-6.653-4.424-9.52.053-2.867-.92-6.264-3.654-8.839s-5.184-2.822-5.963-3.026c-.787-.211-1.009-.699-.929-1.221.16-.858 1.266-.699 1.266-.699 6.636 1.327 11.483 7.902 12.554 9.83.991 1.77 11.467 9.954 15.519 13.537 1.893 1.38 10.095 7.671 11.564 14.121 1.743 7.698-2.919 14.988-6.857 18.421zm-11.821-17.501c1.301.646 3.167 1.911 4.043 3.743a3.34 3.34 0 0 1 .336 1.478c.134 2.141-2.371 5.273-4.592 6.096-1.61.664-3.743.991-5.804.982a19.71 19.71 0 0 1-1.929-.088l2.079-3.459c1.77-2.893 3.965-6.264 5.866-8.75zm-18.474-12.732c1.753-2.973 3.592-5.893 5.459-8.795l.265-.398c-.08.61-.292 3.928.823 7.22.646 1.575 1.672 3.167 3.291 4.654 1.451 1.336 2.663 2.407 3.672 3.247-4.901 6.335-11.847 18.182-11.847 18.182-2.973.177-4.459-.805-6.139-4.388-.24-.513-.426-1.079-.567-1.672v-.009c-.885-3.69-.08-8.441-.061-8.573.123-.248 3.423-6.618 5.104-9.467zm48.972-66.013c4.07-.991 8.096-2.07 12.051-3.309.115-.035.231-.071.345-.115-4.043 6.131-35.878 51.68-38.072 54.635a2124.42 2124.42 0 0 1-5.839-4.99c8.112-11.272 31.055-45.522 31.515-46.221zM451.34 78.998c-.505 24.225-7.141 41.098-7.141 41.098-9.484 5.68-22.429 11.741-37.214 13.935-30.887 4.565-46.061-.053-74.666-9.202-28.587-9.149-71.49-28.888-115.525-28.596-44.044.283-75.48 19.403-103.642 41.151l9.839-3.114s-6.574 7.715-8.573 12.006c0 0 13.103-9.794 31.091-8.75 0 0-6.255 1.566-8.865 5.477 0 0 7.299-1.575 8.6 1.301 1.309 2.867-3.123 9.387-11.201 13.033-8.078 3.654-21.12 6.521-29.463 7.043 0 0 8.352 2.61 13.82 7.821 0 0-6.37.911-13.298 3.645-5.769 2.283-16.165 3.654-20.598 3.132 0 0 6.07 5.68 13.298 10.166 21.164 13.13 12.228 32.595 5.415 38.974-4.486 1.274-51.246 13.997-61.961 89.486 0 0 23.694-33.055 59.572-42.186 35.886-9.131 70.676 0 88.937 8.91 18.262 8.919 46.53 28.481 83.275 34.577 20.208 3.353 44.54 2.743 68.092-1.761-.38.584-18.35 27.313-26.074 38.09 0 0-5.733-7.202-13.493-7.919 0 0-3.256-.655-5.893.717v.009c-2.327 1.071-4.318 3.362-4.964 6.538-.654 3.221.513 5.716 2.036 7.485 1.45 1.69 3.273 2.548 4.75 2.946 1.318.319 3.15 1.124 3.495 2.867-3.539 5.45-8.388 13.325-11.883 20.934-2.743 5.99-4.052 11.13-5.149 14.59-1.035 3.548-1.955 4.937-2.256 5.114l-3.725 3.283s1.424 5.76 1.831 6.724a11.92 11.92 0 0 0-1.363 5.477v.106c0 3.911 1.929 7.751 5.433 10.061 2.734 1.884 6.689 1.999 6.689 1.999 3.902 0 7.733-1.929 10.042-5.397a11.7 11.7 0 0 0 1.292-2.61c2.805-1.141 4.53-2.734 5.424-4.043 2.079.478 8.131.664 8.379.664 8.458-.062 16.474-2.486 22.341-7.485 4.716-4.22 9.865-11.439 10.033-21.111 0-1.725.522-10.821-8.211-18.041l26.57-39.257c18.129-27.472 32.958-51.343 44.239-71.276 11.803-20.262 48.733-75.923 48.654-152.138-.035-22.208-7.989-36.47-7.989-36.47zM297.459 398.95c-.009.009-.009.018-.009.027l.027-.053c0-.018.009-.027.009-.035-.009.018-.018.044-.027.062h0z"/><path fill="#a71930" d="M358.182 245.167c-20.598 14.572-52.848 19.023-52.848 19.023-.363 1.398-2.495 2.867-2.495 2.867s3.3 1.221 11.405 7.317c8.096 6.096 5.901 5.795 8.485 7.538 2.584 1.734 4.052 1.248 4.052 1.248.779 1.566.877 3.893.877 3.893 1.079 1.017 6.361 6.061 1.45 11.281-4.919 5.22-10.6.372-10.6.372-2.008.425-3.964-.239-3.964-.239s-10.511 6.618-20.951-.593c-8.495-5.857-7.982-12.803-7.485-15.2-2.868 1.646-5.947 2.929-9.104 3.92-8.521 2.672-19.395 3.778-30.198.186-7.096-2.389-12.971-6.53-17.607-11.122-4.645-4.601-8.078-9.679-10.316-14.254a45.8 45.8 0 0 1-.938-2.062c-.743 1.77-4.3 8.486-15.315 8.007-12.679-.549-17.076-12.166-17.076-12.166s-1.955-.655-3.3-2.194c0 0-7.45.442-8.228-6.689-.77-7.131 6.494-7.963 7.972-8.122 0 0 1.469-1.805 3.035-2.584 0 0 .885 1.283 3.99 1.451s1.177-.92 11.316-.894c10.14.018 13.502 1.044 13.502 1.044s-.814-2.46-.257-3.796c0 0-23.031-23.004-30.666-47.052s-5.3-32.967 3.973-58.324c0 0 6.875 43.203 27.977 70.348 12.042 15.492 25.588 27.57 35.01 35.09l.646.009c-2.008-2.238-3.539-4.866-4.3-7.874-1.885-7.432-4.972-14.342-6.388-19.845-1.416-5.512 1.734-16.528 1.734-16.528-4.229-6.777-2.168-17.934-2.168-17.934s2.292-1.088 4.035-3.203c1.734-2.123 1.133-8.388 2.548-17.607s7.414-18.757 20.704-24.181c13.219-5.397 33.073 1.681 33.25 1.743.177.053 20.288 6.379 27.578 18.66 7.326 12.343 6.353 23.579 1.92 31.781-4.432 8.211-8.697 12.838-8.582 15.581.106 2.734 1.283 4.981 1.283 4.981s-5.079 10.148-12.555 13.015c0 0-4.132 10.679-8.591 14.218-4.442 3.539-11.077 7.184-17.067 11.98-2.362 1.893-5.079 3.061-7.972 3.654l.575.425c12.042-.319 30.056-1.778 48.91-6.848 33.206-8.936 64.748-39.249 64.748-39.249-7.891 25.818-11.414 34.347-32.001 48.928zm31.586-102.988c-42.487-.257-88.504-24.163-129.327-33.276-86.053-19.2-127.752 25.729-127.77 25.747.009-.009 13.944-5.079 20.969-.513 7.636 4.964.902 17.766-1.557 20.323-7.06 7.352-17.209 12.785-28.419 12.785 0 0 11.865 2.849 15.705 6.379 0 0-11.007 1.442-17.005 3.521-5.99 2.088-17.722 5.477-20.323 5.477 0 0 30.905 14.13 11.723 44.309 0 0 13.413-2.053 24.588 3.309 0 0-61.226-9.883-81.939 57.696 7.804-6.432 32.321-23.73 70.49-23.915 46.079-.203 65.845 10.396 84.151 21.482 27.906 16.917 49.008 21.925 65.04 24.915 46.071 8.6 92.335-6.892 112.384-16.236 58.192-89.159 64.889-139.52 65.88-175.477-18.801 18.925-50.308 23.562-64.588 23.473h0z"/><path fill="#fff" d="M297.237 390.711c0 .018-.009.035-.018.053-1.054 2.637-2.062 7.166-1.647 10.468.088.716.231 1.371.399 2.008v.01c-2.487 11.422-7.3 11.608-8.574 11.44-.203-.027-.319-.063-.319-.063 4.75-4.211 4.6-11.837 9.449-22.438.221-.487.47-.982.709-1.478zm10.98-18.97c-.074.611-.294 3.928.823 7.22-.009.008-6.142 8.027-11.591 20.023a.41.41 0 0 0 .007-.032c-.004.008-.006.015-.009.023-.882-3.689-.078-8.441-.06-8.573.123-.248 3.423-6.618 5.105-9.469 1.752-2.972 3.592-5.892 5.46-8.794l.265-.398zm55.643-60.239c-4.043 6.131-35.879 51.673-38.073 54.629-.178-.142-5.646-4.822-5.84-4.99 8.114-11.272 31.056-45.515 31.516-46.214 4.071-.991 8.097-2.07 12.052-3.309.116-.035.232-.071.345-.115zm-52.718-33.167l1.931 1.541c.678.513 2.131 1.857 2.799 2.515l1.647 1.639c.401.406 2.059 1.97 2.621 2.389.426.317.857.596 1.305.816.41.201.834.359 1.284.468h0l-.042.03c-.923.692-2.008 1.146-3.175 1.146-.401 0-.835-.059-1.224-.153a7.06 7.06 0 0 1-1.563-.587c-.314-.164-.622-.339-.918-.537a11.99 11.99 0 0 1-.551-.394c-.004-.005-.011-.019-.014-.023a5 5 0 0 0 .111-.782c.063-1.039-.152-2.231-.541-3.193-.649-1.701-3.606-4.819-3.671-4.873zm-10.703-6.654l.439.242 2.158 1.217c1.508.87 2.996 1.772 4.46 2.713 1.046.672 2.083 1.361 3.092 2.085l.385.285c.987 1.098 1.993 2.509 2.459 3.82.549 1.51.587 2.906.391 3.929-3.207-3.086-9.951-8.043-11.849-9.026.185-2.267-.752-4.128-1.535-5.265zm-53.861-26.441a78.69 78.69 0 0 1 3.002.447c-.557.763-1.088 1.548-1.593 2.354a80.71 80.71 0 0 1 3.295.672c.453-.829.925-1.642 1.411-2.434a73.88 73.88 0 0 1 2.756.648 86.06 86.06 0 0 0-1.218 2.513c1.034.276 2.075.577 3.121.903l.99-2.592a61.54 61.54 0 0 1 2.613.875l-.774 2.663c1.032.367 2.042.753 3.035 1.152l.541-2.725a64.04 64.04 0 0 1 2.592 1.146 56.93 56.93 0 0 1-.339 2.766c1.035.463 2.046.94 3.029 1.428.079-.932.127-1.863.143-2.791a76.39 76.39 0 0 1 2.666 1.455c.042.935.044 1.87.005 2.801l1.593.893.011.439a36.9 36.9 0 0 1-.029 2.481l-.036.719-1.905-.948c-.238 1.441-.589 2.864-1.07 4.259-.952-.553-1.925-1.084-2.905-1.593.431-1.337.769-2.69 1.026-4.051a115.26 115.26 0 0 0-3.213-1.4c-.288 1.293-.634 2.584-1.039 3.871-1.003-.464-2.017-.909-3.037-1.326.398-1.251.759-2.501 1.087-3.745a113.55 113.55 0 0 0-3.262-1.201l-1.171 3.655a74.79 74.79 0 0 0-3.133-1.051l1.269-3.62a112.93 112.93 0 0 0-3.328-1.002c-.488 1.188-.954 2.4-1.389 3.636a74.43 74.43 0 0 0-3.219-.778c.449-1.263.951-2.493 1.496-3.694l-3.414-.81a33.29 33.29 0 0 0-1.609 3.824 69.47 69.47 0 0 0-3.282-.484c.453-1.386 1.026-2.72 1.696-3.999l-2.102-.383.458-.677a36.35 36.35 0 0 1 1.493-2.013l.18-.228 1.823.238a33.11 33.11 0 0 1 1.733-2.292zm133.396-33.481c-.165.386-6.725 15.453-34.01 27.29l-3.748 1.562c-5.547 2.086-17.226 6.033-32.671 8.822-6.244 1.127-12.561 1.896-18.881 2.427l-4.17.311c-1.149-1.473-2.409-2.925-3.788-4.351 8.374-.37 16.973-1.201 25.412-2.717 34.818-6.257 56.202-20.819 66.454-28.915l2.516-2.034 2.885-2.393zm-180.362 29.459c.311-.002.93.011.883.016-1.623.089-4.19.685-5.825 1.667-.009.004-.018.012-.027.019-.935.545-1.933 1.461-2.442 2.423-.034.063-.219.413-.27.47-5.323 0-6.275-4.03-6.294-4.103a6.45 6.45 0 0 0 1.347.403h0l.366.059c.369.05.749.071 1.139.073 1.635.015 3.332-.294 5.1-.54 1.995-.279 4.009-.477 6.024-.487zm1.126.013l2.09.07c1.099.053 2.197.132 3.293.23 2.207.197 4.775.49 6.964.837-1.314.436-3.125 1.296-4.345 3.226a.82.82 0 0 0-.048.05c-2.115-.365-10.484-.475-14.9.047.459-.933 1.331-2.023 2.678-2.899 1.162-.763 2.822-1.282 4.268-1.562zm-14.948-94.639c1.905 8.016 7.565 37.861 37.194 69.958 5.862 6.35 12.273 12.239 18.779 17.62-1.964.319-3.862.728-5.67 1.222-4.553-4.013-15.084-14.388-15.634-14.928l-.022-.022c-8.815-8.874-15.396-17.401-20.347-25.328l-2.473-4.12h0l-.98-1.762c-13.666-25.031-10.847-42.64-10.847-42.64zm59.405 54.355c1.386-1.16 4.505-.619 4.505-.619s1.4 1.471 1.73 2.572c.321 1.108-.011 7.144 2.374 11.297h0v-.098s.118-.439.624-1.193 1.502-1.824 2.097-1.401.515 1.608.501 2.879-.439 2.629-.76 3.014c0 0 .495 1.013 1.84 1.655 0 0-.057-.484.042-1.174.212-1.218.825-2.223 1.217-3.331.119-.388.498-.787 1.063-.484.011 0 1.124.58 2.11 1.073.114.083.8.606.434 1.59-.017.036-.02.057-.031.084-.014.045-.035.083-.049.128-.37.928-.684 1.777-1.157 2.756 0 0-.242.904-.667.942 0 0 .829.544 1.202.702.571.242 1.281.548 1.632.634 0 0-.379-.586-.283-1.423.227-1.193.58-2.834.881-4.208.104-.323.394-.869 1.057-.66.747.308 1.507.6 2.268.878.639.268.633.899.608 1.111-.349 1.517-.74 3.336-1.155 4.788-.095.221-.227.532-.338.646 0 0 .684.48 1.144.602s1.324.296 1.324.296-.166-.587.044-1.213c.004-.012.004-.023.004-.038l1.024-2.922c.082-.25.325-.803.463-1.163.074-.181.37-.738 1.047-.595a58.83 58.83 0 0 0 2.691.74c.667.197.285 1.22.285 1.22l-1.593 3.907h0c-.007-.003-.218.536-.564.819 0 0 .621.275 1.087.368.982.194 1.566.175 1.812.192 0 0-.303-.733.053-1.609.021-.036.031-.081.045-.121l.897-2.081c.084-.196.158-.394.236-.593.101-.301.578-.793 1.363-.653.027.002.043-.002.068.002.626.118 1.253.223 1.88.319h0c.006.007 1.128.237.718 1.288-.567 1.259-1.168 2.522-1.842 3.793a41.82 41.82 0 0 0 2.114.114s-.088-.063.202-.848 1.14-2.458 1.225-2.707.41-1.217.818-1.265c.411-.043 2.013 1.24 1.596 3.714 4.402-1.88 7.763-6.882 8.688-7.563.809-.596 2.424-.919 2.83-.994.68.391 2.653 1.628 2.988 3.085 0 0-3.316 3.052-7.399 4.85-4.089 1.8-10.272 5.698-12.709 7.322-.923.614-2.177 1.144-3.763 1.436-.989-1.764-4.429-3.942-8.838-5.423-4.609-1.548-8.841-1.847-10.567-.888-1.258-1.289-2.026-2.576-2.42-3.712-.959-2.764-3.546-9.607-5.717-13.504s-2.979-8.335-2.979-8.335zm13.353-50.744c.088-4.592 4.946-23.491 30.135-19.2 4.645.964 8.37 2.088 9.343 2.398.097.035.186.062.283.097.478.15 1.133.363 1.921.655l.716.274 1.035.407 1.513.637 1.638.761c1.229.593 2.538 1.292 3.857 2.088.133.071.265.15.389.23.044.018.08.044.115.071 10.255 6.238 13.068 13.856 13.068 20.155 0 5.539-2.177 10.069-3.371 11.741-1.681 2.336-3.194 3.937-3.973 5.114-.929-1.663-1.646-3.433-1.92-5.202v.006l.002.02c.035.522.634 8.558 4.724 12.685l.211.206s-2.38 5.317-2.876 8.547c-.487 3.238.77 6.645.77 6.645l-.779 1.221c-2.512 2.964-6.91 5.53-9.272 5.096-2.681-.495-9.14-2.69-12.882-1.92-3.07.637-4.919 2.371-5.937 4.123-.257.319-.513.681-.69 1.106 0 0-.796 1.389-1.017 3.247-.548-.239-1.017-.425-1.017-.425a1.38 1.38 0 0 1-.018.372c-.035.274-.159.717-.176.779-.01.097-.019.168-.035.195l-.196.743a56.76 56.76 0 0 1-.752 2.522.19.19 0 0 0-.035.062c-.283.841-1.133.566-1.133.566-.009 0-.096-.035-.096-.035l-2.009-.973s-.796-.416-.672-1.239c-.009-.018 0-.035.009-.062.009-.035 0-.062.019-.088.026-.071.043-.159.07-.221.221-.796.69-2.504.752-2.902.08-.469.389-1.327.584-1.663-.133-.133-.469-.495-.761-.637-.248-.124-.513-.177-.876-.15-.133.115-.354.46-.363.646-.009.106-.291.991-.602 1.964l-.841 2.548a.85.85 0 0 1-.867.646 1.43 1.43 0 0 1-.424-.067l-.036-.012c-.618-.248-1.46-.549-2.123-.796-.043-.009-.08-.035-.124-.044-.796-.301-.743-.982-.69-1.256l1.124-3.344c.071-.239.159-.478.23-.726 0-.009.009-.018.018-.035.027-.106.327-.867.787-1.097-.301-.23-.902-.469-1.353-.628-.541-.177-1.505-.345-1.558-.354.159.345.196.947.115 1.248l-1.221 4.247c-.053.142-.239.584-.531.69-.283.106-1.079-.15-1.079-.15-.053-.009-.088-.018-.133-.027-.672-.203-1.628-.354-2.264-.531 0 0-1.045-.301-.718-1.256l1.017-3.681a.53.53 0 0 1 .018-.106c.027-.088.177-.584.23-1.336s-.451-.929-.823-.929c-.353 0-.743.637-.831 1.009-.098.398-.319 1.062-.319 1.062h0l-.027.062c-.027.062-.053.124-.071.177a83.75 83.75 0 0 0-.973 2.725c-.308.815-1.156.752-1.331.73l-.032-.005-2.177-.434c-.009 0-.097-.027-.097-.035 0 0-.849-.292-.566-1.133 0-.027 0-.053.018-.08a46.86 46.86 0 0 1 .911-2.46c.097-.23.451-1.071.655-1.398.212-.327.495-.504.495-.504.01-.195-.283-.557-.814-.743a3.53 3.53 0 0 0-.212-.053c.31-.77.699-1.831.885-2.725.584-2.168.513-5.22-2-8.096-2.522-2.876-9.007-5.017-11.431-6.238-2.433-1.221-4.619-7.087-4.327-11.139 0 0 3.052-1.964 4.61-4.84 1.575-2.867 2.867-8.538 2.867-8.538 5.884-.664 11.387-6.928 11.724-7.317-1.461 1.407-3.372 2.46-5.354 3.274.106-1.345-.115-3.61-.053-6.963z"/><path fill="#b1babf" d="M298.74 355.956c.161-.858 1.267-.699 1.267-.699 6.636 1.327 11.484 7.901 12.554 9.83.992 1.77 11.468 9.955 15.52 13.538 1.894 1.38 10.096 7.672 11.564 14.122 1.744 7.698-2.919 14.988-6.857 18.422-3.946 3.442-10.654 5.635-17.661 5.503-6.247-.125-10.635-1.133-14.607-3.291a.47.47 0 0 0-.036.133c-.31.265-.939 1.707-5.53 2.389-3.08.504-4.866-.115-5.053-.177 5.416 5.478 10.316 2.026 10.316 2.026.232.956.566 1.637.566 1.637s-1.627 2.39-6.582 1.567c-.603-.098-1.116-.265-1.619-.451.096.053.185.088.282.15a4.11 4.11 0 0 1 1.169 5.697c-1.266 1.903-3.813 2.416-5.716 1.169a4.12 4.12 0 0 1-1.16-5.707c1.026-1.557 2.901-2.169 4.592-1.663-3.716-1.787-4.672-5.523-4.672-5.523a2.19 2.19 0 0 0 .319.063c1.274.168 6.087-.018 8.574-11.44.071.292 1.699 6.883 6.149 5.812l-.699 1.567c1.946 1.212 6.406 3.327 13.997 3.424 10.662.142 16.493-6.875 18.095-12.095 1.256-4.062-.69-8.574-4.708-12.529 1.177-1.363 1.894-3.265 1.106-5.885.363 1.213-1.911 3.372-4.31 3.16a3.51 3.51 0 0 1-.653-.115c-3.62-1.01-7.744-5.416-11.238-8.026-3.477-2.61-4.495-6.653-4.424-9.52.051-2.868-.921-6.265-3.655-8.84s-5.184-2.822-5.963-3.026c-.788-.212-1.01-.699-.93-1.221zm22.225 37.711c1.301.646 3.167 1.911 4.043 3.743a3.34 3.34 0 0 1 .337 1.477c.134 2.142-2.371 5.274-4.593 6.098-1.61.664-3.743.991-5.805.981-.655 0-1.299-.026-1.928-.088l2.078-3.459c1.77-2.894 3.966-6.265 5.867-8.751zm-11.925-14.706c.646 1.575 1.672 3.167 3.291 4.654 1.452 1.336 2.663 2.407 3.673 3.248-4.902 6.335-11.848 18.182-11.848 18.182-2.972.178-4.46-.804-6.14-4.388-.24-.514-.425-1.079-.566-1.672 5.448-11.997 11.582-20.015 11.591-20.023zm69.952-72.971c-5.769 9.122-37.242 56.54-44.685 67.308-.051-.044-.133-.097-.176-.133-1.089-.991-2.495-2.186-4.052-3.486 2.538-3.62 31.632-46.878 40.162-60.283 2.983-1.054 5.885-2.203 8.751-3.406zm-78.845-44.878s.517-.382.825.008c.181.241.203.553-.14.868-.335.318-1.509 1.101-2.203 3.14-.696 2.053-.265 4.036.537 5.475.745 1.335 1.062 2.945.805 4.457-.088.537-.252 1.075-.481 1.568-.569 1.216-1.015 2.486-1.53 3.726-.564 1.351-1.189 2.609-1.994 3.375-.894.848-2.336.587-3.22-.127-.036-.03-.081-.049-.115-.08.372 1.597 1.373 2.236 2.41 2.466-.486 3.186.645 5.505 4.481 7.387 3.925 1.923 10.733 1.916 15.817-2.937-.509-.572-1.118-.992-1.711-1.467-.009-.007-.018-.016-.026-.019.395-.114.905-.331 1.23-.735.181-.226.31-.597.403-1.025h0l.021.016a11.99 11.99 0 0 0 .551.394c.296.198.603.373.918.537a7.06 7.06 0 0 0 1.563.587c.388.094.823.153 1.224.153 1.167 0 2.252-.454 3.175-1.146.011-.008.023-.013.032-.021.01.004.088.565.093.689.038.726-.042 1.882-.724 3.009.703-.536 1.685-.65 2.517-.196 1.131.61 1.552 2.027.937 3.154s-2.025 1.553-3.156.938c-1.092-.593-1.496-1.923-.972-3.029-.181.187-.355.377-.582.555-1.34 1.028-2.385 1.187-3.037 1.148-.463-.029-.731-.157-.731-.157s.027-.294-.104-.782c-.018-.066-.028-.125-.052-.199.159.014.455.019.823-.033 1.133-.161 2.986-.879 3.874-3.797 0 0-.218.283-.591.649-.816.805-2.496 2.01-4.808 1.839-1.11.951-7.978 6.41-16.207 3.498-8.987-3.183-9.056-8.73-8.831-10.542.147-1.184.779-3.133.81-3.228.731-2.272 4.438-10.476 4.457-11.746s.702-5.909 3.711-8.369zm1.827 15.835c1.898.983 8.642 5.939 11.849 9.026-.101.514-.242.96-.446 1.221-.319.399-.781.618-1.179.752-2.821-1.931-7.107-4.465-11.625-6.499.279-.698.6-1.565.981-2.638.242-.69.419-1.862.419-1.862zm-82.947-43.323c.484-.127.669.492.669.492.912 3.776-1.341 7.886-2.088 8.912s-2.747 9.804-3.536 12.061c0 0-.93 2.315-1.3 3.062-.816 1.632-4.317 5.963-13.403 3.076-8.323-2.641-10.549-11.129-10.861-12.549-2.837-1.826-2.758-5.257-2.758-5.257-1.396 3.801.899 5.541 1.438 5.89-.062-.041-.539.457-.595.523-.009.01-.115.162-.124.16 0 0-.816-.154-1.566-1.214-.312-.442-.617-1.025-.84-1.844-.081-.296-.134-.581-.164-.856-.004.032-.004.062-.009.093-.194 1.285-1.396 2.166-2.679 1.974a2.36 2.36 0 0 1-1.977-2.682 2.35 2.35 0 0 1 2.678-1.972c1.012.151 1.777.932 1.96 1.887.072-2.315 1.761-3.672 1.761-3.672.019.073.971 4.103 6.294 4.103-.185.399-.306.772-.299 1.061.018.519.29.998.543 1.328h0-.261c-.588.001-2.022.014-2.024.137 1.126 6.941 6.555 11.052 10.843 11.883 4.189.814 6.491-.349 8.02-3.173.97.442 2.162.52 3.424-.526-1.848.079-2.65-1.041-2.79-1.851-.367-2.126.957-5.347 1.472-7.792.522-2.446 2.38-3.944 3.889-4.605 1.514-.662 3.048-1.986 3.733-4.041.682-2.046.214-3.379.138-3.836s.12-.694.41-.774zm160.946-21.865c.004-.002-.162.482-.162.482-2.032 5.86-5.796 11.311-9.917 15.889-2.995 3.329-6.26 6.36-9.744 9.172-5.343 4.312-11.419 7.808-17.614 10.733-6.154 2.906-12.606 5.213-19.161 7.031-10.253 2.843-21.101 4.334-31.821 4.935-.818-1.588-1.793-3.211-2.895-4.848 34.453-2.467 57.131-15.967 57.131-15.967h0l.173-.138c27.285-11.837 33.844-26.904 34.01-27.29zm-186.182 33.933c4.417-.522 12.785-.412 14.9-.047a.62.62 0 0 1 .048-.05 7.6 7.6 0 0 0-.841 1.785c-.349 1.08-.611 1.969-.814 2.693-5.091-1.397-13.189-1.829-13.189-1.829-.232-.341-.47-.799-.484-1.308-.007-.333.15-.774.38-1.246zm-8.002-99.099s-2.819 17.609 10.847 42.64l-.041-.075-.036-.065s9.74 24.092 35.285 46.688l.779.684c-1.867.65-3.622 1.358-5.229 2.124-.257.122-2.833-2.444-3.149-2.724a169.62 169.62 0 0 1-7.515-7.062c-5.664-5.665-10.888-11.784-15.467-18.36-3.719-5.338-7.058-10.96-9.758-16.881-2.639-5.786-4.791-11.781-6.137-18.003-1.267-5.857-1.829-11.881-1.512-17.869.187-3.539.618-7.219 1.762-10.591 0-.002.171-.505.171-.505zm61.495 43.424s2.402 1.165 3.151 1.602c0 0-.005.026-.012.078-.09.672-.724 5.464-.756 7.77-.004.354.003.649.033.862 0 0-3.12-.541-4.505.619 0 0 .805 4.434 2.979 8.335s4.757 10.74 5.717 13.504c.394 1.135 1.162 2.423 2.42 3.712 1.726-.959 5.958-.66 10.567.888 4.409 1.481 7.849 3.659 8.838 5.423 1.586-.292 2.84-.822 3.763-1.436 2.437-1.624 8.62-5.523 12.709-7.322 4.083-1.799 7.399-4.85 7.399-4.85-.335-1.457-2.308-2.694-2.988-3.085.06-.011.095-.015.095-.015 1.134-1.148 4.248-6.64 4.633-7.321.027-.047.04-.071.04-.071.864.105 3.475.62 3.475.62s-2.72 6.325-4.331 9.049c-1.606 2.713-2.914 3.636-4.48 4.742s-8.467 5.664-10.295 6.953c-1.822 1.289-6.67 5.639-10.904 6.39-2.1.372-3.921.417-5.649.223s-3.367-.627-5.095-1.206c-.011-.002-.021-.007-.031-.012s-.027-.005-.035-.008c-3.457-1.163-6.26-2.572-9.163-5.7-2.56-2.757-3.829-7.997-4.561-10.691l-.285-.985c-.677-2.127-3.428-9.93-4.012-11.753s-1.071-3.35-.712-6.485c.335-2.945 1.798-9.006 1.981-9.753.01-.05.017-.076.017-.076zm39.287 18.153s1.566-1.106 4.37-.972c0 0-.017.017-.017.026h0l.017-.009c-.079.212-.715 1.955-.885 3.486-.096.947-.557 3.336-.557 3.354-.823 2.867-3.583 4.45-3.832 4.291-.292-.186-.672-.885.566-4.849 0-.194.638-.424.779-.415l.769-.124s-.071-.15-.336-.531c-.115-.187-.415-.302-.601-.408-.213-.115-1.292-.593-1.292-.602.203-1.702.889-3.012 1.002-3.219zm-41.817-33.579c-.292 4.052 1.893 9.919 4.327 11.14 2.424 1.22 8.91 3.361 11.433 6.238 2.513 2.876 2.584 5.929 2 8.097-.187.893-.576 1.955-.885 2.725a3.44 3.44 0 0 0-.522-.088c-.513-.062-1.328-.116-1.497.522-.008.026-.017.044-.017.044.08.273.142.61.106.796-.045.203-.115.389-.15.479-1.389 3.902-2.123 4.237-2.469 4.211-.292-.017-1.54-2.954-.469-5.734.008-.017.017-.035.017-.052.549-1.24 1.071-2.142 1.558-2.956.858-1.416 1.407-3.335 1.407-3.335h0l.017.035v-.027c.718.488 1.327 1.08 1.894 1.725.017.019.026.027.026.036.257.425.655.751.885 1.203.063.132.107.257.107.353.194-.743.168-1.645-.116-2.37-.017-.027-.017-.054-.026-.08-1.052-2.876-3.778-4.566-6.309-6-1.69-.956-3.451-1.788-5.229-2.566-5.211-2.292-5.291-3.813-5.99-6.22-.08-.302-.15-.656-.203-1.045-.097-.769-.124-1.69-.124-2.601 0-2.274.23-4.53.23-4.53zm70.591 25.174c-.017.035-.036.062-.062.096-1.044 1.859-2.45 3.85-4.168 5.141-2 1.504-2.981 2.663-8.528 1.353-2.177-.521-4.381-.99-6.6-1.264-2.841-.363-6.601-.46-8.672 1.928-.01.019-.019.019-.035.036-.019 0-.027.018-.035.027 1.026-1.761 2.876-3.504 5.955-4.141 3.743-.771 10.201 1.424 12.883 1.92 2.362.434 6.752-2.133 9.264-5.096zm-34.257-14.309c2 .801 3.112 2.809 2.509 4.611-.38 1.15-.292 2.07-.204 3.291h0l.011.035v.019c.043.981.265 1.503.503 2.176.241.629.533 1.629.161 2.654h0l-.47 1.398c-.627 1.885-2.893 2.814-5.051 2.098h0c0-.01 1.449-.38 1.92-1.77.008-.018.017-.036.017-.053.894-.134 1.673-.664 1.954-1.513h0l.496-1.46c.495-1.495-.61-2.169-.672-4.584-.088-1.248-.176-2.461.31-3.902.39-1.169-.263-2.463-1.483-3zm-5.295 1.983c.612-1.787 2.708-2.734 4.815-2.141-1.302-.328-2.62.319-3.009 1.486-.487 1.451-1.309 2.353-2.123 3.291-1.513 1.893-2.806 1.761-3.3 3.257h0l-.495 1.459c-.284.841.017 1.726.637 2.372-.009.018-.019.043-.019.062-.468 1.398.469 2.565.469 2.565-2.149-.725-3.389-2.83-2.761-4.707h0l.471-1.398c.326-1.045 1.148-1.672 1.734-2.026.601-.389 1.088-.672 1.716-1.424h0l.026-.036c.825-.919 1.461-1.609 1.84-2.76zm37.854-4.477l.079.008s-1.106 7.468-2.929 10.397c-1.824 2.938-3.565 5.646-8.097 5.398 0 0 2.628-.761 1.788-2.823a2.73 2.73 0 0 1-.142-.459c1.212-.681 2.3-1.194 3.291-2.23 1.318-1.372 2.361-3.063 3.114-4.796a18.58 18.58 0 0 0 .825-2.362s.584-2.682 1.716-3.079l.355-.053h0zm-35.509-7.3c.964 2.097 8.565 4.645 10.645 3.574-.01.044-.203 2.778-.196 4.406.009 1.638.567 7.964 3.337 9.619h0c.009 0-.683.822.202 3.398-.212-.071-3.681-1.354-4.927-4.159-1.292-2.885-.035-10.636-4.672-12.255-4.673-1.512-8.344 5.433-11.124 6.955-2.768 1.521-6.449.344-6.449.344 2.135-1.423 2.219-2.451 2.221-2.578v-.013c3.202.354 7.452-4.354 8.45-5.663.992-1.3 2.513-3.628 2.513-3.628zm-22.148-12.069l.054.035.018.009c.079.08.168.168.248.257.664 1-.487 3.487-.487 3.487-.292.726-.523 1.469-.718 2.221-.664 2.575-.911 5.769.15 8.335.044.088.718 1.256.682 1.292-.062.053-.125.106-.196.15a2.67 2.67 0 0 1-.211.142c-1.841 1.079-.398 3.15-.283 3.309-3.752-2.522-3.522-5.733-3.195-9.175.319-3.434 3.937-10.061 3.937-10.061h0zm49.14-27.358l1.025.434c26.375 12.688 20.562 32.728 19.049 36.559-1.371 3.442-4.097 6.839-5.29 8.777-1.399-1.531-3.283-3.813-4.699-6.37.779-1.177 2.292-2.778 3.973-5.114 1.194-1.672 3.371-6.202 3.371-11.741 0-6.3-2.814-13.917-13.068-20.155-.035-.027-.071-.053-.115-.071-.124-.08-.257-.159-.389-.23-1.318-.796-2.628-1.495-3.857-2.088zm-40.911 22.713c4.407-1.097 11.565 5.574 15.776 9.088 3.584 3.167 5.151 3.468 5.47 3.557.326.124 1.751.831 6.503.459 5.486-.256 15.219-1.264 18.077 2.275 0 .097-6.919-.681-11.583.071-4.636.982-11.218 1.611-14.139.593-2.937-.948-7.813-5.424-10.909-8.998-3.247-3.39-9.194-6.929-9.194-7.044zm14.977-28.951c2.115 0 4.38.15 6.813.495a82.04 82.04 0 0 1 2.548.487l.124.027h0c-25.19-4.291-30.047 14.608-30.135 19.2-.062 3.353.159 5.618.053 6.963-3.663 1.531-7.583 2.088-7.583 2.088.212-2.123.203-6.813 1.115-10.511.858-3.477 6.662-18.66 27.065-18.748z"/><path fill="#0a0b09" d="M266.687 126.298c13.219-5.397 33.073 1.681 33.25 1.743.177.053 20.288 6.379 27.578 18.66 7.326 12.343 6.353 23.579 1.92 31.781-4.432 8.211-8.697 12.838-8.582 15.581.106 2.734 1.283 4.981 1.283 4.981s-5.079 10.148-12.555 13.015c0 0-4.132 10.679-8.591 14.218-4.442 3.539-11.077 7.184-17.067 11.98-2.362 1.893-5.079 3.061-7.972 3.654l.575.425c12.042-.319 30.056-1.778 48.91-6.848 33.206-8.936 64.748-39.249 64.748-39.249-7.891 25.818-11.414 34.347-32.001 48.928-20.598 14.572-52.848 19.023-52.848 19.023-.363 1.398-2.495 2.867-2.495 2.867s3.3 1.221 11.405 7.317c8.096 6.096 5.901 5.795 8.485 7.538 2.427 1.629 3.87 1.298 4.036 1.252l.016-.005c.779 1.566.877 3.893.877 3.893 1.079 1.017 6.361 6.061 1.45 11.281-4.919 5.22-10.6.372-10.6.372-2.008.425-3.964-.239-3.964-.239s-10.511 6.618-20.951-.593c-8.495-5.857-7.982-12.803-7.485-15.2-2.868 1.646-5.947 2.929-9.104 3.92-8.521 2.672-19.395 3.778-30.198.186-7.096-2.389-12.971-6.53-17.607-11.122-4.645-4.601-8.078-9.679-10.316-14.254a45.8 45.8 0 0 1-.938-2.062c-.743 1.77-4.3 8.486-15.315 8.007-12.679-.549-17.076-12.166-17.076-12.166s-1.955-.655-3.3-2.194c0 0-7.45.442-8.228-6.689-.77-7.131 6.494-7.963 7.972-8.122 0 0 1.469-1.805 3.035-2.584 0 0 .885 1.283 3.99 1.451s1.177-.92 11.316-.894c10.14.018 13.502 1.044 13.502 1.044s-.814-2.46-.257-3.796c0 0-23.031-23.004-30.666-47.052s-5.3-32.967 3.973-58.324c0 0 6.875 43.203 27.977 70.348 12.042 15.492 25.588 27.57 35.01 35.09l.646.009c-2.008-2.238-3.539-4.866-4.3-7.874-1.885-7.432-4.972-14.342-6.388-19.845-1.416-5.512 1.734-16.528 1.734-16.528-4.229-6.777-2.168-17.934-2.168-17.934s2.292-1.088 4.035-3.203c1.734-2.123 1.133-8.388 2.548-17.607s7.414-18.757 20.704-24.181zm34.285 134.822c-.31-.389-.823-.009-.823-.009-3.008 2.46-3.69 7.096-3.716 8.37-.018 1.274-3.724 9.476-4.45 11.75-.035.089-.664 2.044-.814 3.221-.221 1.814-.15 7.361 8.83 10.547 8.229 2.912 15.103-2.548 16.209-3.495 2.309.168 3.99-1.035 4.804-1.84.336-.327.54-.584.584-.646-.876 2.911-2.734 3.628-3.866 3.787-.363.053-.664.053-.823.035.027.08.035.133.053.204.133.486.106.778.106.778s.265.133.726.159c.655.035 1.699-.124 3.045-1.15.221-.177.397-.363.574-.549-.522 1.106-.115 2.433.974 3.026a2.33 2.33 0 0 0 3.158-.937c.619-1.125.195-2.549-.938-3.16-.832-.451-1.813-.336-2.513.195.681-1.124.761-2.283.717-3.007 0-.125-.08-.682-.088-.682-.442-.124-.867-.283-1.274-.478-.451-.221-.876-.504-1.301-.823-.566-.416-2.22-1.982-2.627-2.389l-1.647-1.637c-.664-.655-2.123-2-2.796-2.513l-1.885-1.495c.38.389 3.017 3.229 3.619 4.831.389.956.61 2.15.549 3.185-.018.292-.062.549-.115.787 0 0 .009.018.018.018-.009 0-.018-.009-.027-.009-.088.425-.221.796-.398 1.026-.327.399-.841.62-1.23.734.009 0 .018.009.027.018.593.469 1.203.894 1.708 1.469-5.087 4.849-11.891 4.857-15.82 2.929-3.831-1.875-4.964-4.194-4.477-7.388-1.035-.221-2.035-.867-2.415-2.46.035.027.081.044.116.08.885.717 2.326.973 3.22.124.805-.761 1.433-2.017 2-3.371.513-1.239.956-2.513 1.531-3.725a6.16 6.16 0 0 0 .478-1.566c.257-1.513-.062-3.123-.805-4.459-.805-1.442-1.23-3.424-.54-5.477.699-2.044 1.867-2.822 2.203-3.141.345-.31.327-.628.142-.867zm-.531 10.564c.779 1.133 1.716 3 1.531 5.264 0 0-.177 1.168-.415 1.858l-.983 2.637c4.522 2.035 8.803 4.574 11.626 6.503.398-.133.859-.354 1.177-.752.203-.265.346-.708.442-1.221.203-1.026.16-2.424-.389-3.928-.46-1.309-1.469-2.725-2.46-3.821-.123-.098-.257-.187-.38-.284a67.65 67.65 0 0 0-3.097-2.088 103.04 103.04 0 0 0-4.459-2.707l-2.159-1.221c-.15-.088-.292-.159-.434-.239zm-38.09-31.374c-17.536-5.884-36.559 2.814-40.735 8.096-.177.212-.336.434-.469.672-.018.027-.027.08-.053.097 0 0-.106.159-.221.487-1.663 4.972 8.414 26.101 27.437 32.489 19.04 6.388 39.62-3.822 41.478-9.361.133-.398.159-.726.159-.726.186-1.309-.106-3.176-.832-5.362-2.831-8.405-12.245-21.518-26.764-26.393zm11.106 17.543c6.682 3.917 11.654 8.134 14.189 11.153-3.715-2.74-8.545-5.783-14.218-8.673a36.9 36.9 0 0 0 .029-2.481zm-54.326-24.248l-.107.016c-.283.08-.487.319-.407.779.08.451.549 1.787-.142 3.831-.681 2.062-2.212 3.38-3.725 4.043s-3.371 2.159-3.893 4.61c-.513 2.442-1.84 5.663-1.469 7.786.133.814.938 1.929 2.787 1.858-1.265 1.044-2.451.964-3.424.522-1.531 2.822-3.831 3.981-8.025 3.167-4.282-.823-9.715-4.937-10.838-11.883 0-.118 1.438-.131 2.025-.133h.258c-.248-.327-.522-.814-.54-1.327-.009-.292.115-.664.301-1.062.044-.062.23-.407.265-.469.513-.964 1.504-1.876 2.442-2.424.009-.009.018-.018.027-.018 1.637-.982 4.203-1.575 5.831-1.663a9.6 9.6 0 0 0-.885-.018c-2.017.009-4.026.203-6.025.487-1.77.248-3.468.549-5.096.54-.522-.009-1.026-.044-1.513-.133-.451-.088-.902-.221-1.345-.407 0 0-1.69 1.354-1.761 3.672a2.34 2.34 0 0 0-1.955-1.885 2.35 2.35 0 0 0-2.681 1.973c-.195 1.283.699 2.486 1.982 2.681 1.274.195 2.477-.69 2.672-1.973.009-.035.009-.062.009-.097.035.274.088.566.168.858.221.823.522 1.398.841 1.84.743 1.062 1.566 1.221 1.566 1.221.009 0 .115-.15.124-.168.053-.062.495-.522.584-.522-.549-.363-2.814-2.106-1.433-5.884 0 0-.08 3.433 2.76 5.256.31 1.416 2.539 9.909 10.865 12.546 9.087 2.893 12.581-1.442 13.404-3.079.363-.743 1.292-3.061 1.292-3.061.787-2.256 2.787-11.033 3.539-12.059.743-1.026 2.999-5.132 2.088-8.91 0 0-.186-.619-.672-.495zm160.842-21.847c-.035.071-1.124.973-2.884 2.398l-2.522 2.035c-10.246 8.096-31.631 22.65-66.447 28.914-8.441 1.513-17.041 2.345-25.42 2.716 1.381 1.424 2.645 2.876 3.796 4.353l4.167-.319c6.317-.531 12.635-1.292 18.881-2.424 15.448-2.787 27.127-6.733 32.666-8.821 1.301-.513 2.539-1.035 3.751-1.566h0l-.167.142s-22.686 13.502-57.131 15.97c1.097 1.637 2.07 3.256 2.893 4.849 10.715-.602 21.562-2.097 31.816-4.937 6.556-1.823 13.006-4.123 19.164-7.034 6.193-2.92 12.272-6.423 17.616-10.732 3.477-2.814 6.742-5.84 9.741-9.175 4.123-4.574 7.883-10.024 9.918-15.882h0l.15-.46zM200.736 241.23c-1.442.283-3.106.796-4.265 1.566-1.354.876-2.221 1.964-2.681 2.893-.23.478-.389.92-.38 1.248.018.513.257.964.487 1.309 0 0 8.096.434 13.192 1.831.195-.726.46-1.619.805-2.699.221-.69.522-1.265.849-1.787 1.221-1.929 3.026-2.787 4.344-3.221-2.194-.354-4.76-.646-6.963-.841-1.097-.097-2.194-.177-3.3-.23-.69-.035-1.389-.053-2.088-.071zm23.542 6.632c3.929-.872 10.648-1.283 18.563-.341a36.35 36.35 0 0 0-1.493 2.013c-6.461-1.153-12.328-1.631-17.07-1.672zm-38.486-101.268l-.177.504c-1.141 3.371-1.575 7.052-1.761 10.591-.319 5.99.248 12.015 1.513 17.864 1.345 6.229 3.495 12.219 6.14 18.005 2.699 5.928 6.034 11.546 9.759 16.881 4.574 6.574 9.803 12.697 15.466 18.359 2.424 2.433 4.937 4.787 7.512 7.069.319.274 2.893 2.84 3.15 2.725 1.61-.77 3.362-1.478 5.229-2.132-25.72-22.429-35.745-46.601-36.055-47.353h0l.071.124.982 1.761 2.469 4.123c4.955 7.928 11.529 16.457 20.35 25.331.027.027 10.98 10.83 15.652 14.944 1.814-.495 3.707-.902 5.671-1.221-6.503-5.379-12.918-11.272-18.784-17.616-29.622-32.1-35.285-61.943-37.187-69.959h0zm61.492 43.425s-.009.027-.018.071c-.186.752-1.646 6.813-1.982 9.759a17.62 17.62 0 0 0-.088 1.097c-.142 2.415.283 3.787.805 5.388.584 1.823 3.336 9.626 4.008 11.75a21.97 21.97 0 0 1 .292.982c.726 2.699 2 7.936 4.557 10.697 2.903 3.123 5.707 4.53 9.166 5.698 0 0 .018 0 .027.009.018 0 .027.009.035.009 1.725.584 3.362 1.009 5.096 1.203 1.725.195 3.548.15 5.646-.221 4.237-.752 9.086-5.096 10.908-6.388s8.733-5.848 10.291-6.954c1.565-1.106 2.876-2.026 4.485-4.742 1.61-2.725 4.327-9.051 4.327-9.051s-2.61-.513-3.477-.619c0 0-.009.027-.035.071-.389.681-3.504 6.176-4.635 7.326 0 0-.036 0-.089.018-.407.071-2.026.389-2.831.991-.929.681-4.291 5.68-8.688 7.565.416-2.477-1.185-3.76-1.601-3.716-.407.044-.725 1.017-.814 1.265s-.938 1.92-1.221 2.707c-.292.787-.203.849-.203.849a55.35 55.35 0 0 1-2.115-.115 67.55 67.55 0 0 0 1.84-3.796c.368-.953-.509-1.232-.68-1.276l-.028-.007-.009-.009-1.884-.319h0-.063c-.787-.142-1.264.354-1.363.655l-.239.593-.902 2.079c-.009.044-.018.088-.044.124-.354.876-.053 1.61-.053 1.61-.239-.018-.823 0-1.814-.195-.46-.097-1.079-.372-1.079-.372.345-.283.557-.823.557-.823l1.593-3.902s.38-1.026-.283-1.221c-.902-.221-1.796-.469-2.69-.734-.681-.15-.973.407-1.044.593l-.469 1.159-1.017 2.92c0 .018 0 .027-.009.044-.212.619-.044 1.212-.044 1.212s-.867-.177-1.318-.301c-.46-.115-1.15-.602-1.15-.602.116-.106.248-.425.345-.646.407-1.451.805-3.265 1.15-4.787.027-.212.035-.841-.61-1.106-.761-.283-1.522-.575-2.265-.885-.664-.203-.956.345-1.062.664l-.876 4.212c-.097.832.283 1.416.283 1.416-.353-.08-1.062-.389-1.628-.628-.38-.159-1.203-.708-1.203-.708.425-.035.664-.938.664-.938.469-.982.787-1.831 1.159-2.76.009-.044.035-.08.044-.124.009-.027.018-.044.035-.088.363-.982-.319-1.504-.434-1.584l-2.115-1.079c-.566-.301-.938.097-1.062.487-.389 1.106-1 2.115-1.212 3.336-.097.69-.044 1.168-.044 1.168-1.345-.637-1.84-1.655-1.84-1.655.319-.38.752-1.743.761-3.008.009-1.274.088-2.46-.504-2.884-.593-.416-1.584.646-2.097 1.407-.504.752-.619 1.194-.619 1.194h0v.097c-2.389-4.158-2.053-10.193-2.38-11.299s-1.725-2.575-1.725-2.575c-.027-.212-.035-.504-.035-.858.035-2.309.672-7.096.761-7.768.009-.053.009-.08.009-.08-.743-.442-3.15-1.601-3.15-1.601zm31.914-60.023c-20.403.088-26.207 15.271-27.065 18.748-.911 3.698-.902 8.388-1.115 10.511 0 0 3.92-.557 7.583-2.088 1.982-.814 3.893-1.867 5.354-3.274-.337.389-5.84 6.653-11.724 7.317 0 0-1.292 5.671-2.867 8.538-1.557 2.876-4.61 4.84-4.61 4.84s-.23 2.256-.23 4.53c0 .911.027 1.831.124 2.601.053.389.124.743.203 1.044.699 2.407.779 3.928 5.99 6.22 1.778.779 3.539 1.61 5.229 2.566 2.53 1.433 5.256 3.123 6.308 5.999.009.027.009.053.027.08.282.726.309 1.628.114 2.371 0-.097-.044-.221-.106-.354-.229-.451-.628-.779-.885-1.203 0-.009-.008-.018-.027-.035-.566-.646-1.177-1.239-1.893-1.725h0v.027l-.018-.035s-.549 1.92-1.407 3.336c-.487.814-1.009 1.716-1.557 2.955 0 .018-.009.035-.018.053-1.071 2.778.177 5.716.469 5.733.345.027 1.079-.31 2.469-4.212a3.12 3.12 0 0 0 .15-.478c.035-.186-.027-.522-.106-.796 0 0 .009-.018.018-.044.168-.637.982-.584 1.495-.522.177.018.354.044.522.088a3.53 3.53 0 0 1 .212.053c.531.186.824.549.814.743 0 0-.283.177-.495.504-.203.327-.557 1.168-.655 1.398a46.86 46.86 0 0 0-.911 2.46c-.018.027-.018.053-.018.08-.25.742.382 1.056.534 1.12l.032.013c0 .009.088.035.097.035a85.65 85.65 0 0 1 2.177.434s1.018.186 1.363-.726a83.75 83.75 0 0 1 .973-2.725 1.36 1.36 0 0 1 .071-.168h0v-.009l.027-.062s.221-.664.319-1.062c.088-.372.478-1.009.831-1.009.372 0 .876.177.823.929s-.203 1.248-.23 1.336a.53.53 0 0 0-.018.106l-1.017 3.681c-.327.956.718 1.256.718 1.256.636.177 1.592.327 2.264.531.044.009.08.018.133.027 0 0 .796.257 1.079.15.292-.106.478-.549.531-.69.044-.142 1.106-3.849 1.221-4.247.081-.301.044-.902-.115-1.248.053.009 1.017.177 1.558.354.45.159 1.052.398 1.353.628-.46.23-.761.991-.787 1.097-.009.018-.018.027-.018.035-.071.248-.159.487-.23.726l-1.124 3.344c-.053.274-.106.956.69 1.256h0l.124.044 2.123.796a1.4 1.4 0 0 0 .46.08.85.85 0 0 0 .867-.646l.841-2.548.602-1.964c.009-.186.23-.531.363-.646.363-.027.628.027.876.15.292.142.628.504.761.637-.195.336-.504 1.194-.584 1.663-.062.398-.531 2.106-.752 2.902-.027.062-.044.15-.07.221-.019.027-.01.053-.019.088-.009.027-.018.044-.009.062-.124.823.672 1.239.672 1.239l2.009.973a1.15 1.15 0 0 0 .096.035s.849.274 1.133-.566a.19.19 0 0 1 .035-.062 56.76 56.76 0 0 0 .752-2.522l.196-.743c.017-.027.026-.097.035-.195.017-.062.141-.504.176-.779a1.38 1.38 0 0 0 .018-.372s.47.186 1.017.425c0 .009 1.079.487 1.292.602.186.106.487.221.602.416.265.372.336.522.336.522h0l-.77.124c-.142-.009-.779.221-.779.416-1.239 3.964-.858 4.663-.565 4.849.247.159 3.007-1.416 3.83-4.282 0-.027.46-2.415.558-3.362.167-1.531.804-3.274.885-3.486h0l-.019.009c0-.009.019-.027.019-.027-2.806-.133-4.372.973-4.372.973.177-.425.434-.787.708-1.115.018-.018.027-.018.035-.035 2.07-2.389 5.831-2.292 8.671-1.929 2.221.274 4.424.743 6.6 1.265 5.556 1.309 6.531.15 8.529-1.354 1.726-1.292 3.132-3.283 4.176-5.141.019-.035.044-.062.062-.097l.779-1.221s-1.256-3.406-.77-6.645c.495-3.229 2.876-8.547 2.876-8.547-4.424-4.194-4.937-12.918-4.937-12.918.274 1.77.991 3.539 1.92 5.202 1.417 2.557 3.3 4.84 4.699 6.37 1.194-1.938 3.919-5.335 5.29-8.777 1.513-3.831 7.326-23.871-19.049-36.559h0l-1.025-.434c-.567-.274-1.116-.522-1.638-.761-.531-.239-1.035-.451-1.513-.637-.363-.15-.708-.283-1.035-.407l-.716-.274c-.788-.292-1.443-.504-1.921-.655-.097-.035-.186-.062-.283-.097-.973-.31-4.698-1.433-9.343-2.398h0l-.124-.027-2.548-.487c-2.433-.345-4.698-.495-6.813-.495zm-1.599 56.787c.389-1.168 1.708-1.815 3.009-1.486.08.018.158.035.23.062.086.028.167.063.25.096 1.22.537 1.873 1.831 1.483 3-.486 1.441-.398 2.654-.31 3.902.062 2.415 1.168 3.089.672 4.584h0l-.496 1.46c-.281.849-1.061 1.379-1.954 1.513-.417.053-.859.053-1.302-.088-1.37-.46-2.14-1.859-1.716-3.106.071-.212-.054-.442-.275-.523-.221-.07-.45.044-.521.249-.415 1.256-1.876 1.902-3.256 1.442-.442-.15-.796-.416-1.097-.726-.62-.646-.921-1.531-.637-2.372h0l.495-1.459c.495-1.496 1.787-1.363 3.3-3.257.814-.938 1.637-1.84 2.123-3.291zm11.184-7.548s.035.044.053.071a13.75 13.75 0 0 0 1.699 1.964h0c.168.168.344.327.531.488.009.008.026.017.035.035.691.575 1.505 1.106 2.444 1.417 2.856.964 7.024.282 11.492-.532a30.91 30.91 0 0 1 1.151-.159c4.008-.459 7.53.426 7.53.426h0l.008.026-.079-.008-.355.053c-1.132.397-1.716 3.079-1.716 3.079a18.58 18.58 0 0 1-.825 2.362c-.752 1.733-1.795 3.424-3.114 4.796-.991 1.035-2.079 1.548-3.291 2.23-.027-.009-.709.203-1.071.247-2.745.337-8.512-.548-11.281-2.442-.027-.009-.045-.018-.062-.026h0c-2.779-1.655-3.337-7.982-3.346-9.619-.008-1.628.186-4.362.196-4.406zm-32.765-15.644c.203.08 3.414 1.486 6.246 4.185.284.266.558.541.825.823 3.077 3.345 5.99 6.407 8.848 7.362.929.31 1.91.38 2.805.337.009 0 .026 0 .045-.01.247-.009.486-.027.715-.053h0c1.469-.186 2.638-.575 2.638-.575s-1.521 2.328-2.513 3.628c-.999 1.309-5.248 6.017-8.45 5.663-.026 0-.053-.018-.08-.018-3.354-.168-8.494-2.938-10.477-4.858-.265-.265-.672-.841-.68-.841-.062.053-.125.097-.196.142.071-.044.134-.097.196-.15.035-.035-.638-1.203-.682-1.292-1.062-2.566-.814-5.76-.15-8.335.195-.752.426-1.495.718-2.221 0 0 1.15-2.487.487-3.487-.08-.088-.169-.177-.248-.257h0l-.018-.009c0-.008-.01-.017-.027-.035z"/><path fill="#c2242b" d="M287.84 273.911c-7.048 4.442-22.778 8.552-37.928 3.471-14.869-4.993-24.748-17.703-27.912-25.441-.371-.803-.467-2.972 1.705-3.977 0 0-1.372.196-2.608 1.209 0 0-.109.16-.22.492-1.664 4.964 8.412 26.097 27.436 32.484 19.035 6.389 39.622-3.821 41.48-9.356.127-.403.153-.726.153-.726-.432-1.355-1.258-2.199-1.258-2.199 1.058 1.997-.027 3.461-.848 4.043"/><path fill="#dc4405" d="M273.428 260.334l-.036.719-1.905-.948c-.238 1.441-.589 2.864-1.07 4.259l-2.905-1.593c.431-1.337.769-2.69 1.026-4.051l-3.213-1.4-1.039 3.871-3.037-1.326 1.087-3.745-3.262-1.201-1.171 3.655-3.133-1.051 1.269-3.62-3.328-1.002-1.389 3.636-3.219-.778 1.496-3.694-3.414-.81a33.29 33.29 0 0 0-1.609 3.824l-3.282-.484c.453-1.386 1.026-2.72 1.696-3.999l-2.102-.383.458-.677c-6.461-1.153-12.328-1.631-17.07-1.672 3.929-.872 10.648-1.283 18.563-.341l.18-.228 1.823.238a33.11 33.11 0 0 1 1.733-2.292 78.69 78.69 0 0 1 3.002.447c-.557.763-1.088 1.548-1.593 2.354a80.71 80.71 0 0 1 3.295.672c.453-.829.925-1.642 1.411-2.434a73.88 73.88 0 0 1 2.756.648 86.06 86.06 0 0 0-1.218 2.513c1.034.276 2.075.577 3.121.903l.99-2.592a61.54 61.54 0 0 1 2.613.875l-.774 2.663c1.032.367 2.042.753 3.035 1.152l.541-2.725a64.04 64.04 0 0 1 2.592 1.146 56.93 56.93 0 0 1-.339 2.766c1.035.463 2.046.94 3.029 1.428.079-.932.127-1.863.143-2.791a76.39 76.39 0 0 1 2.666 1.455c.042.935.044 1.87.005 2.801l1.593.893.011.439c6.682 3.917 11.654 8.134 14.189 11.153-3.715-2.74-8.545-5.783-14.218-8.673zm-11.075-20.023c-17.534-5.882-36.558 2.809-40.74 8.091a5.35 5.35 0 0 0-.465.679c-.014.025-.031.074-.051.093 1.236-1.014 2.608-1.209 2.608-1.209-2.172 1.005-2.076 3.174-1.705 3.977 3.164 7.738 13.043 20.448 27.912 25.441 15.149 5.081 30.879.971 37.928-3.471.82-.581 1.906-2.046.848-4.043a6.04 6.04 0 0 0 1.258 2.199c.183-1.316-.104-3.179-.834-5.36-2.825-8.406-12.24-21.525-26.758-26.396h0z"/></svg>