<svg xmlns="http://www.w3.org/2000/svg" width="500" height="500" fill="none" xmlns:v="https://vecta.io/nano"><g clip-path="url(#A)"><path d="M334.104 124l14.704 45.082-10.94 33.501L312.329 124H197.846l-20.535 62.99L156.858 124H20l42.993 69.815 58.896 180.906h110.823l22.272-68.388 22.21 68.388h121.245L480 124H334.104zM78.296 186.722L49.965 140.73h94.734l23.802 73.31-40.656 124.884-49.549-152.202zM220.49 358.363h-81.354l66.444-204.109 40.615 125.03-25.705 79.079zm-1.716-217.633h81.395l28.952 88.923-40.739 125.174-69.608-214.097zm167.361 217.53h-81.334l61.543-189.075-9.264-28.455h99.821l-70.766 217.53z" fill="#ffb612"/><path d="M329.058 229.674l-40.739 125.175-69.546-214.118h81.396l28.889 88.943zm28.021-88.943l9.223 28.455-61.542 189.075h81.333l70.849-217.53h-99.863zm-212.381 0H49.965l28.331 45.991 49.631 152.203 40.574-124.885-23.803-73.309zm-5.562 217.53h81.457l25.705-78.976-40.718-125.03-66.444 204.006z" fill="#5a1414"/></g><defs><clipPath id="A"><path fill="#fff" transform="translate(20 124)" d="M0 0h460v250.721H0z"/></clipPath></defs></svg>